solid OpenSCAD_Model
  facet normal 0 0 -1
    outer loop
      vertex 0 -5 0
      vertex 13.6875 5 0
      vertex 13.6875 -5 0
    endloop
  endfacet
  facet normal -0 0 -1
    outer loop
      vertex 13.6875 5 0
      vertex 0 -5 0
      vertex 0 5 0
    endloop
  endfacet
  facet normal 0 0 -1
    outer loop
      vertex 151.038 -5 0
      vertex 164.5 5 0
      vertex 164.5 -5 0
    endloop
  endfacet
  facet normal -0 0 -1
    outer loop
      vertex 164.5 5 0
      vertex 151.038 -5 0
      vertex 151.038 5 0
    endloop
  endfacet
  facet normal 0 0 -1
    outer loop
      vertex 28.0625 -5 0
      vertex 40.8375 5 0
      vertex 40.8375 -5 0
    endloop
  endfacet
  facet normal -0 0 -1
    outer loop
      vertex 40.8375 5 0
      vertex 28.0625 -5 0
      vertex 28.0625 5 0
    endloop
  endfacet
  facet normal 0 0 -1
    outer loop
      vertex 55.2125 -5 0
      vertex 82.3625 5 0
      vertex 82.3625 -5 0
    endloop
  endfacet
  facet normal -0 0 -1
    outer loop
      vertex 82.3625 5 0
      vertex 55.2125 -5 0
      vertex 55.2125 5 0
    endloop
  endfacet
  facet normal 0 0 -1
    outer loop
      vertex 96.7375 -5 0
      vertex 109.512 5 0
      vertex 109.512 -5 0
    endloop
  endfacet
  facet normal -0 0 -1
    outer loop
      vertex 109.512 5 0
      vertex 96.7375 -5 0
      vertex 96.7375 5 0
    endloop
  endfacet
  facet normal 0 0 -1
    outer loop
      vertex 123.887 -5 0
      vertex 136.663 5 0
      vertex 136.663 -5 0
    endloop
  endfacet
  facet normal -0 0 -1
    outer loop
      vertex 136.663 5 0
      vertex 123.887 -5 0
      vertex 123.887 5 0
    endloop
  endfacet
  facet normal 1 -0 0
    outer loop
      vertex 13.6875 -5 10
      vertex 13.6875 5 0
      vertex 13.6875 5 10
    endloop
  endfacet
  facet normal 1 0 0
    outer loop
      vertex 13.6875 5 0
      vertex 13.6875 -5 10
      vertex 13.6875 -5 0
    endloop
  endfacet
  facet normal -1 0 0
    outer loop
      vertex 28.0625 -5 0
      vertex 28.0625 5 10
      vertex 28.0625 5 0
    endloop
  endfacet
  facet normal -1 -0 0
    outer loop
      vertex 28.0625 5 10
      vertex 28.0625 -5 0
      vertex 28.0625 -5 10
    endloop
  endfacet
  facet normal 1 -0 0
    outer loop
      vertex 40.8375 -5 10
      vertex 40.8375 5 0
      vertex 40.8375 5 10
    endloop
  endfacet
  facet normal 1 0 0
    outer loop
      vertex 40.8375 5 0
      vertex 40.8375 -5 10
      vertex 40.8375 -5 0
    endloop
  endfacet
  facet normal -1 0 0
    outer loop
      vertex 55.2125 -5 0
      vertex 55.2125 5 10
      vertex 55.2125 5 0
    endloop
  endfacet
  facet normal -1 -0 0
    outer loop
      vertex 55.2125 5 10
      vertex 55.2125 -5 0
      vertex 55.2125 -5 10
    endloop
  endfacet
  facet normal 1 -0 0
    outer loop
      vertex 82.3625 -5 10
      vertex 82.3625 5 0
      vertex 82.3625 5 10
    endloop
  endfacet
  facet normal 1 0 0
    outer loop
      vertex 82.3625 5 0
      vertex 82.3625 -5 10
      vertex 82.3625 -5 0
    endloop
  endfacet
  facet normal -1 0 0
    outer loop
      vertex 96.7375 -5 0
      vertex 96.7375 5 10
      vertex 96.7375 5 0
    endloop
  endfacet
  facet normal -1 -0 0
    outer loop
      vertex 96.7375 5 10
      vertex 96.7375 -5 0
      vertex 96.7375 -5 10
    endloop
  endfacet
  facet normal 1 -0 0
    outer loop
      vertex 109.512 -5 10
      vertex 109.512 5 0
      vertex 109.512 5 10
    endloop
  endfacet
  facet normal 1 0 0
    outer loop
      vertex 109.512 5 0
      vertex 109.512 -5 10
      vertex 109.512 -5 0
    endloop
  endfacet
  facet normal -1 0 0
    outer loop
      vertex 123.887 -5 0
      vertex 123.887 5 10
      vertex 123.887 5 0
    endloop
  endfacet
  facet normal -1 -0 0
    outer loop
      vertex 123.887 5 10
      vertex 123.887 -5 0
      vertex 123.887 -5 10
    endloop
  endfacet
  facet normal 1 -0 0
    outer loop
      vertex 136.663 -5 10
      vertex 136.663 5 0
      vertex 136.663 5 10
    endloop
  endfacet
  facet normal 1 0 0
    outer loop
      vertex 136.663 5 0
      vertex 136.663 -5 10
      vertex 136.663 -5 0
    endloop
  endfacet
  facet normal -1 0 0
    outer loop
      vertex 151.038 -5 0
      vertex 151.038 5 10
      vertex 151.038 5 0
    endloop
  endfacet
  facet normal -1 -0 0
    outer loop
      vertex 151.038 5 10
      vertex 151.038 -5 0
      vertex 151.038 -5 10
    endloop
  endfacet
  facet normal 0 0 -1
    outer loop
      vertex 13.6875 -5 10
      vertex 28.0625 5 10
      vertex 28.0625 -5 10
    endloop
  endfacet
  facet normal -0 0 -1
    outer loop
      vertex 28.0625 5 10
      vertex 13.6875 -5 10
      vertex 13.6875 5 10
    endloop
  endfacet
  facet normal 0 0 -1
    outer loop
      vertex 40.8375 -5 10
      vertex 55.2125 5 10
      vertex 55.2125 -5 10
    endloop
  endfacet
  facet normal -0 0 -1
    outer loop
      vertex 55.2125 5 10
      vertex 40.8375 -5 10
      vertex 40.8375 5 10
    endloop
  endfacet
  facet normal 0 0 -1
    outer loop
      vertex 82.3625 -5 10
      vertex 96.7375 5 10
      vertex 96.7375 -5 10
    endloop
  endfacet
  facet normal -0 0 -1
    outer loop
      vertex 96.7375 5 10
      vertex 82.3625 -5 10
      vertex 82.3625 5 10
    endloop
  endfacet
  facet normal 0 0 -1
    outer loop
      vertex 109.512 -5 10
      vertex 123.887 5 10
      vertex 123.887 -5 10
    endloop
  endfacet
  facet normal -0 0 -1
    outer loop
      vertex 123.887 5 10
      vertex 109.512 -5 10
      vertex 109.512 5 10
    endloop
  endfacet
  facet normal 0 0 -1
    outer loop
      vertex 136.663 -5 10
      vertex 151.038 5 10
      vertex 151.038 -5 10
    endloop
  endfacet
  facet normal -0 0 -1
    outer loop
      vertex 151.038 5 10
      vertex 136.663 -5 10
      vertex 136.663 5 10
    endloop
  endfacet
  facet normal -1 0 0
    outer loop
      vertex 12.4875 -3.8 1.2
      vertex 12.4875 5 11.2
      vertex 12.4875 5 1.2
    endloop
  endfacet
  facet normal -1 -0 0
    outer loop
      vertex 12.4875 5 11.2
      vertex 12.4875 -3.8 1.2
      vertex 12.4875 -3.8 11.2
    endloop
  endfacet
  facet normal -0 0 1
    outer loop
      vertex 12.4875 5 11.2
      vertex 29.2625 -3.8 11.2
      vertex 29.2625 5 11.2
    endloop
  endfacet
  facet normal 0 0 1
    outer loop
      vertex 29.2625 -3.8 11.2
      vertex 12.4875 5 11.2
      vertex 12.4875 -3.8 11.2
    endloop
  endfacet
  facet normal -0 0 1
    outer loop
      vertex 39.6375 5 11.2
      vertex 56.4125 -3.8 11.2
      vertex 56.4125 5 11.2
    endloop
  endfacet
  facet normal 0 0 1
    outer loop
      vertex 56.4125 -3.8 11.2
      vertex 39.6375 5 11.2
      vertex 39.6375 -3.8 11.2
    endloop
  endfacet
  facet normal -0 0 1
    outer loop
      vertex 81.1625 5 11.2
      vertex 97.9375 -3.8 11.2
      vertex 97.9375 5 11.2
    endloop
  endfacet
  facet normal 0 0 1
    outer loop
      vertex 97.9375 -3.8 11.2
      vertex 81.1625 5 11.2
      vertex 81.1625 -3.8 11.2
    endloop
  endfacet
  facet normal -0 0 1
    outer loop
      vertex 108.312 5 11.2
      vertex 125.088 -3.8 11.2
      vertex 125.088 5 11.2
    endloop
  endfacet
  facet normal 0 0 1
    outer loop
      vertex 125.088 -3.8 11.2
      vertex 108.312 5 11.2
      vertex 108.312 -3.8 11.2
    endloop
  endfacet
  facet normal -0 0 1
    outer loop
      vertex 135.462 5 11.2
      vertex 152.238 -3.8 11.2
      vertex 152.238 5 11.2
    endloop
  endfacet
  facet normal 0 0 1
    outer loop
      vertex 152.238 -3.8 11.2
      vertex 135.462 5 11.2
      vertex 135.462 -3.8 11.2
    endloop
  endfacet
  facet normal -0 0 1
    outer loop
      vertex 0 5 11.2
      vertex 1.2 -3.8 11.2
      vertex 1.2 5 11.2
    endloop
  endfacet
  facet normal 0 0 1
    outer loop
      vertex 1.2 -3.8 11.2
      vertex 0 5 11.2
      vertex 0 -3.8 11.2
    endloop
  endfacet
  facet normal -0 0 1
    outer loop
      vertex 163.3 5 11.2
      vertex 164.5 -3.8 11.2
      vertex 164.5 5 11.2
    endloop
  endfacet
  facet normal 0 0 1
    outer loop
      vertex 164.5 -3.8 11.2
      vertex 163.3 5 11.2
      vertex 163.3 -3.8 11.2
    endloop
  endfacet
  facet normal 1 -0 0
    outer loop
      vertex 29.2625 -3.8 11.2
      vertex 29.2625 5 1.2
      vertex 29.2625 5 11.2
    endloop
  endfacet
  facet normal 1 0 0
    outer loop
      vertex 29.2625 5 1.2
      vertex 29.2625 -3.8 11.2
      vertex 29.2625 -3.8 1.2
    endloop
  endfacet
  facet normal -1 0 0
    outer loop
      vertex 39.6375 -3.8 1.2
      vertex 39.6375 5 11.2
      vertex 39.6375 5 1.2
    endloop
  endfacet
  facet normal -1 -0 0
    outer loop
      vertex 39.6375 5 11.2
      vertex 39.6375 -3.8 1.2
      vertex 39.6375 -3.8 11.2
    endloop
  endfacet
  facet normal 1 -0 0
    outer loop
      vertex 56.4125 -3.8 11.2
      vertex 56.4125 5 1.2
      vertex 56.4125 5 11.2
    endloop
  endfacet
  facet normal 1 0 0
    outer loop
      vertex 56.4125 5 1.2
      vertex 56.4125 -3.8 11.2
      vertex 56.4125 -3.8 1.2
    endloop
  endfacet
  facet normal -1 0 0
    outer loop
      vertex 81.1625 -3.8 1.2
      vertex 81.1625 5 11.2
      vertex 81.1625 5 1.2
    endloop
  endfacet
  facet normal -1 -0 0
    outer loop
      vertex 81.1625 5 11.2
      vertex 81.1625 -3.8 1.2
      vertex 81.1625 -3.8 11.2
    endloop
  endfacet
  facet normal 1 -0 0
    outer loop
      vertex 97.9375 -3.8 11.2
      vertex 97.9375 5 1.2
      vertex 97.9375 5 11.2
    endloop
  endfacet
  facet normal 1 0 0
    outer loop
      vertex 97.9375 5 1.2
      vertex 97.9375 -3.8 11.2
      vertex 97.9375 -3.8 1.2
    endloop
  endfacet
  facet normal -1 0 0
    outer loop
      vertex 108.312 -3.8 1.2
      vertex 108.312 5 11.2
      vertex 108.312 5 1.2
    endloop
  endfacet
  facet normal -1 -0 0
    outer loop
      vertex 108.312 5 11.2
      vertex 108.312 -3.8 1.2
      vertex 108.312 -3.8 11.2
    endloop
  endfacet
  facet normal 1 -0 0
    outer loop
      vertex 125.088 -3.8 11.2
      vertex 125.088 5 1.2
      vertex 125.088 5 11.2
    endloop
  endfacet
  facet normal 1 0 0
    outer loop
      vertex 125.088 5 1.2
      vertex 125.088 -3.8 11.2
      vertex 125.088 -3.8 1.2
    endloop
  endfacet
  facet normal -1 0 0
    outer loop
      vertex 135.462 -3.8 1.2
      vertex 135.462 5 11.2
      vertex 135.462 5 1.2
    endloop
  endfacet
  facet normal -1 -0 0
    outer loop
      vertex 135.462 5 11.2
      vertex 135.462 -3.8 1.2
      vertex 135.462 -3.8 11.2
    endloop
  endfacet
  facet normal 1 -0 0
    outer loop
      vertex 152.238 -3.8 11.2
      vertex 152.238 5 1.2
      vertex 152.238 5 11.2
    endloop
  endfacet
  facet normal 1 0 0
    outer loop
      vertex 152.238 5 1.2
      vertex 152.238 -3.8 11.2
      vertex 152.238 -3.8 1.2
    endloop
  endfacet
  facet normal -1 0 0
    outer loop
      vertex 0 5 0
      vertex 0 -3.8 11.2
      vertex 0 5 11.2
    endloop
  endfacet
  facet normal -1 0 0
    outer loop
      vertex 0 -5 0
      vertex 0 -3.8 11.2
      vertex 0 5 0
    endloop
  endfacet
  facet normal -1 0 0
    outer loop
      vertex 0 -5 14.7
      vertex 0 -3.8 11.2
      vertex 0 -5 0
    endloop
  endfacet
  facet normal -1 0 0
    outer loop
      vertex 0 -3.8 11.2
      vertex 0 -5 14.7
      vertex 0 -3.8 14.7
    endloop
  endfacet
  facet normal 1 0 0
    outer loop
      vertex 164.5 -3.8 14.7
      vertex 164.5 -5 14.7
      vertex 164.5 -3.8 11.2
    endloop
  endfacet
  facet normal 1 -0 0
    outer loop
      vertex 164.5 -3.8 11.2
      vertex 164.5 5 0
      vertex 164.5 5 11.2
    endloop
  endfacet
  facet normal 1 0 0
    outer loop
      vertex 164.5 -3.8 11.2
      vertex 164.5 -5 0
      vertex 164.5 5 0
    endloop
  endfacet
  facet normal 1 0 0
    outer loop
      vertex 164.5 -5 0
      vertex 164.5 -3.8 11.2
      vertex 164.5 -5 14.7
    endloop
  endfacet
  facet normal 0 -1 0
    outer loop
      vertex 123.887 -5 0
      vertex 136.663 -5 10
      vertex 123.887 -5 10
    endloop
  endfacet
  facet normal 0 -1 -0
    outer loop
      vertex 136.663 -5 10
      vertex 123.887 -5 0
      vertex 136.663 -5 0
    endloop
  endfacet
  facet normal 0 -1 0
    outer loop
      vertex 96.7375 -5 0
      vertex 109.512 -5 10
      vertex 96.7375 -5 10
    endloop
  endfacet
  facet normal 0 -1 -0
    outer loop
      vertex 109.512 -5 10
      vertex 96.7375 -5 0
      vertex 109.512 -5 0
    endloop
  endfacet
  facet normal 0 -1 0
    outer loop
      vertex 55.2125 -5 0
      vertex 82.3625 -5 10
      vertex 55.2125 -5 10
    endloop
  endfacet
  facet normal 0 -1 -0
    outer loop
      vertex 82.3625 -5 10
      vertex 55.2125 -5 0
      vertex 82.3625 -5 0
    endloop
  endfacet
  facet normal 0 -1 0
    outer loop
      vertex 28.0625 -5 0
      vertex 40.8375 -5 10
      vertex 28.0625 -5 10
    endloop
  endfacet
  facet normal 0 -1 -0
    outer loop
      vertex 40.8375 -5 10
      vertex 28.0625 -5 0
      vertex 40.8375 -5 0
    endloop
  endfacet
  facet normal 0 -1 0
    outer loop
      vertex 28.0625 -5 10
      vertex 0 -5 14.7
      vertex 13.6875 -5 10
    endloop
  endfacet
  facet normal 0 -1 0
    outer loop
      vertex 0 -5 0
      vertex 13.6875 -5 10
      vertex 0 -5 14.7
    endloop
  endfacet
  facet normal 0 -1 -0
    outer loop
      vertex 13.6875 -5 10
      vertex 0 -5 0
      vertex 13.6875 -5 0
    endloop
  endfacet
  facet normal 0 -1 0
    outer loop
      vertex 40.8375 -5 10
      vertex 0 -5 14.7
      vertex 28.0625 -5 10
    endloop
  endfacet
  facet normal 0 -1 0
    outer loop
      vertex 55.2125 -5 10
      vertex 0 -5 14.7
      vertex 40.8375 -5 10
    endloop
  endfacet
  facet normal 0 -1 0
    outer loop
      vertex 82.3625 -5 10
      vertex 0 -5 14.7
      vertex 55.2125 -5 10
    endloop
  endfacet
  facet normal 0 -1 0
    outer loop
      vertex 0 -5 14.7
      vertex 82.3625 -5 10
      vertex 164.5 -5 14.7
    endloop
  endfacet
  facet normal 0 -1 0
    outer loop
      vertex 96.7375 -5 10
      vertex 164.5 -5 14.7
      vertex 82.3625 -5 10
    endloop
  endfacet
  facet normal 0 -1 0
    outer loop
      vertex 109.512 -5 10
      vertex 164.5 -5 14.7
      vertex 96.7375 -5 10
    endloop
  endfacet
  facet normal 0 -1 0
    outer loop
      vertex 123.887 -5 10
      vertex 164.5 -5 14.7
      vertex 109.512 -5 10
    endloop
  endfacet
  facet normal 0 -1 0
    outer loop
      vertex 136.663 -5 10
      vertex 164.5 -5 14.7
      vertex 123.887 -5 10
    endloop
  endfacet
  facet normal 0 -1 0
    outer loop
      vertex 151.038 -5 10
      vertex 164.5 -5 14.7
      vertex 136.663 -5 10
    endloop
  endfacet
  facet normal 0 -1 0
    outer loop
      vertex 164.5 -5 0
      vertex 151.038 -5 10
      vertex 151.038 -5 0
    endloop
  endfacet
  facet normal 0 -1 0
    outer loop
      vertex 151.038 -5 10
      vertex 164.5 -5 0
      vertex 164.5 -5 14.7
    endloop
  endfacet
  facet normal 0 1 0
    outer loop
      vertex 164.5 5 11.2
      vertex 163.3 5 1.2
      vertex 163.3 5 11.2
    endloop
  endfacet
  facet normal 0 1 0
    outer loop
      vertex 163.3 5 1.2
      vertex 164.5 5 0
      vertex 152.238 5 1.2
    endloop
  endfacet
  facet normal 0 1 -0
    outer loop
      vertex 164.5 5 0
      vertex 163.3 5 1.2
      vertex 164.5 5 11.2
    endloop
  endfacet
  facet normal 0 1 0
    outer loop
      vertex 152.238 5 11.2
      vertex 151.038 5 10
      vertex 135.462 5 11.2
    endloop
  endfacet
  facet normal 0 1 -0
    outer loop
      vertex 152.238 5 1.2
      vertex 151.038 5 10
      vertex 152.238 5 11.2
    endloop
  endfacet
  facet normal 0 1 0
    outer loop
      vertex 152.238 5 1.2
      vertex 151.038 5 0
      vertex 151.038 5 10
    endloop
  endfacet
  facet normal 0 1 0
    outer loop
      vertex 151.038 5 0
      vertex 152.238 5 1.2
      vertex 164.5 5 0
    endloop
  endfacet
  facet normal 0 1 -0
    outer loop
      vertex 136.663 5 10
      vertex 135.462 5 11.2
      vertex 151.038 5 10
    endloop
  endfacet
  facet normal 0 1 0
    outer loop
      vertex 136.663 5 10
      vertex 135.462 5 1.2
      vertex 135.462 5 11.2
    endloop
  endfacet
  facet normal 0 1 0
    outer loop
      vertex 135.462 5 1.2
      vertex 136.663 5 0
      vertex 125.088 5 1.2
    endloop
  endfacet
  facet normal 0 1 -0
    outer loop
      vertex 136.663 5 0
      vertex 135.462 5 1.2
      vertex 136.663 5 10
    endloop
  endfacet
  facet normal 0 1 0
    outer loop
      vertex 125.088 5 11.2
      vertex 123.887 5 10
      vertex 108.312 5 11.2
    endloop
  endfacet
  facet normal 0 1 -0
    outer loop
      vertex 125.088 5 1.2
      vertex 123.887 5 10
      vertex 125.088 5 11.2
    endloop
  endfacet
  facet normal 0 1 0
    outer loop
      vertex 125.088 5 1.2
      vertex 123.887 5 0
      vertex 123.887 5 10
    endloop
  endfacet
  facet normal 0 1 0
    outer loop
      vertex 123.887 5 0
      vertex 125.088 5 1.2
      vertex 136.663 5 0
    endloop
  endfacet
  facet normal 0 1 -0
    outer loop
      vertex 109.512 5 10
      vertex 108.312 5 11.2
      vertex 123.887 5 10
    endloop
  endfacet
  facet normal 0 1 0
    outer loop
      vertex 109.512 5 10
      vertex 108.312 5 1.2
      vertex 108.312 5 11.2
    endloop
  endfacet
  facet normal 0 1 0
    outer loop
      vertex 108.312 5 1.2
      vertex 109.512 5 0
      vertex 97.9375 5 1.2
    endloop
  endfacet
  facet normal 0 1 -0
    outer loop
      vertex 109.512 5 0
      vertex 108.312 5 1.2
      vertex 109.512 5 10
    endloop
  endfacet
  facet normal 0 1 0
    outer loop
      vertex 97.9375 5 11.2
      vertex 96.7375 5 10
      vertex 81.1625 5 11.2
    endloop
  endfacet
  facet normal 0 1 -0
    outer loop
      vertex 97.9375 5 1.2
      vertex 96.7375 5 10
      vertex 97.9375 5 11.2
    endloop
  endfacet
  facet normal 0 1 0
    outer loop
      vertex 97.9375 5 1.2
      vertex 96.7375 5 0
      vertex 96.7375 5 10
    endloop
  endfacet
  facet normal 0 1 0
    outer loop
      vertex 96.7375 5 0
      vertex 97.9375 5 1.2
      vertex 109.512 5 0
    endloop
  endfacet
  facet normal 0 1 -0
    outer loop
      vertex 82.3625 5 10
      vertex 81.1625 5 11.2
      vertex 96.7375 5 10
    endloop
  endfacet
  facet normal 0 1 0
    outer loop
      vertex 82.3625 5 10
      vertex 81.1625 5 1.2
      vertex 81.1625 5 11.2
    endloop
  endfacet
  facet normal 0 1 0
    outer loop
      vertex 81.1625 5 1.2
      vertex 82.3625 5 0
      vertex 56.4125 5 1.2
    endloop
  endfacet
  facet normal 0 1 -0
    outer loop
      vertex 82.3625 5 0
      vertex 81.1625 5 1.2
      vertex 82.3625 5 10
    endloop
  endfacet
  facet normal 0 1 0
    outer loop
      vertex 56.4125 5 11.2
      vertex 55.2125 5 10
      vertex 39.6375 5 11.2
    endloop
  endfacet
  facet normal 0 1 -0
    outer loop
      vertex 56.4125 5 1.2
      vertex 55.2125 5 10
      vertex 56.4125 5 11.2
    endloop
  endfacet
  facet normal 0 1 0
    outer loop
      vertex 56.4125 5 1.2
      vertex 55.2125 5 0
      vertex 55.2125 5 10
    endloop
  endfacet
  facet normal 0 1 0
    outer loop
      vertex 55.2125 5 0
      vertex 56.4125 5 1.2
      vertex 82.3625 5 0
    endloop
  endfacet
  facet normal 0 1 -0
    outer loop
      vertex 40.8375 5 10
      vertex 39.6375 5 11.2
      vertex 55.2125 5 10
    endloop
  endfacet
  facet normal 0 1 0
    outer loop
      vertex 40.8375 5 10
      vertex 39.6375 5 1.2
      vertex 39.6375 5 11.2
    endloop
  endfacet
  facet normal 0 1 0
    outer loop
      vertex 39.6375 5 1.2
      vertex 40.8375 5 0
      vertex 29.2625 5 1.2
    endloop
  endfacet
  facet normal 0 1 -0
    outer loop
      vertex 40.8375 5 0
      vertex 39.6375 5 1.2
      vertex 40.8375 5 10
    endloop
  endfacet
  facet normal 0 1 0
    outer loop
      vertex 29.2625 5 11.2
      vertex 28.0625 5 10
      vertex 12.4875 5 11.2
    endloop
  endfacet
  facet normal 0 1 -0
    outer loop
      vertex 29.2625 5 1.2
      vertex 28.0625 5 10
      vertex 29.2625 5 11.2
    endloop
  endfacet
  facet normal 0 1 0
    outer loop
      vertex 29.2625 5 1.2
      vertex 28.0625 5 0
      vertex 28.0625 5 10
    endloop
  endfacet
  facet normal 0 1 0
    outer loop
      vertex 28.0625 5 0
      vertex 29.2625 5 1.2
      vertex 40.8375 5 0
    endloop
  endfacet
  facet normal 0 1 -0
    outer loop
      vertex 13.6875 5 10
      vertex 12.4875 5 11.2
      vertex 28.0625 5 10
    endloop
  endfacet
  facet normal 0 1 0
    outer loop
      vertex 13.6875 5 10
      vertex 12.4875 5 1.2
      vertex 12.4875 5 11.2
    endloop
  endfacet
  facet normal 0 1 0
    outer loop
      vertex 12.4875 5 1.2
      vertex 13.6875 5 0
      vertex 1.2 5 1.2
    endloop
  endfacet
  facet normal 0 1 -0
    outer loop
      vertex 13.6875 5 0
      vertex 12.4875 5 1.2
      vertex 13.6875 5 10
    endloop
  endfacet
  facet normal 0 1 -0
    outer loop
      vertex 1.2 5 1.2
      vertex 0 5 11.2
      vertex 1.2 5 11.2
    endloop
  endfacet
  facet normal 0 1 0
    outer loop
      vertex 1.2 5 1.2
      vertex 0 5 0
      vertex 0 5 11.2
    endloop
  endfacet
  facet normal 0 1 0
    outer loop
      vertex 0 5 0
      vertex 1.2 5 1.2
      vertex 13.6875 5 0
    endloop
  endfacet
  facet normal 1 -0 0
    outer loop
      vertex 1.2 -3.8 11.2
      vertex 1.2 5 1.2
      vertex 1.2 5 11.2
    endloop
  endfacet
  facet normal 1 0 0
    outer loop
      vertex 1.2 5 1.2
      vertex 1.2 -3.8 11.2
      vertex 1.2 -3.8 1.2
    endloop
  endfacet
  facet normal -1 0 0
    outer loop
      vertex 163.3 -3.8 1.2
      vertex 163.3 5 11.2
      vertex 163.3 5 1.2
    endloop
  endfacet
  facet normal -1 -0 0
    outer loop
      vertex 163.3 5 11.2
      vertex 163.3 -3.8 1.2
      vertex 163.3 -3.8 11.2
    endloop
  endfacet
  facet normal -0 0 1
    outer loop
      vertex 1.2 5 1.2
      vertex 12.4875 -3.8 1.2
      vertex 12.4875 5 1.2
    endloop
  endfacet
  facet normal 0 0 1
    outer loop
      vertex 12.4875 -3.8 1.2
      vertex 1.2 5 1.2
      vertex 1.2 -3.8 1.2
    endloop
  endfacet
  facet normal -0 0 1
    outer loop
      vertex 152.238 5 1.2
      vertex 163.3 -3.8 1.2
      vertex 163.3 5 1.2
    endloop
  endfacet
  facet normal 0 0 1
    outer loop
      vertex 163.3 -3.8 1.2
      vertex 152.238 5 1.2
      vertex 152.238 -3.8 1.2
    endloop
  endfacet
  facet normal -0 0 1
    outer loop
      vertex 29.2625 5 1.2
      vertex 39.6375 -3.8 1.2
      vertex 39.6375 5 1.2
    endloop
  endfacet
  facet normal 0 0 1
    outer loop
      vertex 39.6375 -3.8 1.2
      vertex 29.2625 5 1.2
      vertex 29.2625 -3.8 1.2
    endloop
  endfacet
  facet normal -0 0 1
    outer loop
      vertex 56.4125 5 1.2
      vertex 81.1625 -3.8 1.2
      vertex 81.1625 5 1.2
    endloop
  endfacet
  facet normal 0 0 1
    outer loop
      vertex 81.1625 -3.8 1.2
      vertex 56.4125 5 1.2
      vertex 56.4125 -3.8 1.2
    endloop
  endfacet
  facet normal -0 0 1
    outer loop
      vertex 97.9375 5 1.2
      vertex 108.312 -3.8 1.2
      vertex 108.312 5 1.2
    endloop
  endfacet
  facet normal 0 0 1
    outer loop
      vertex 108.312 -3.8 1.2
      vertex 97.9375 5 1.2
      vertex 97.9375 -3.8 1.2
    endloop
  endfacet
  facet normal -0 0 1
    outer loop
      vertex 125.088 5 1.2
      vertex 135.462 -3.8 1.2
      vertex 135.462 5 1.2
    endloop
  endfacet
  facet normal 0 0 1
    outer loop
      vertex 135.462 -3.8 1.2
      vertex 125.088 5 1.2
      vertex 125.088 -3.8 1.2
    endloop
  endfacet
  facet normal 0 1 -0
    outer loop
      vertex 12.4875 -3.8 1.2
      vertex 1.2 -3.8 11.2
      vertex 12.4875 -3.8 11.2
    endloop
  endfacet
  facet normal 0 1 0
    outer loop
      vertex 1.2 -3.8 11.2
      vertex 12.4875 -3.8 1.2
      vertex 1.2 -3.8 1.2
    endloop
  endfacet
  facet normal 0 1 -0
    outer loop
      vertex 39.6375 -3.8 1.2
      vertex 29.2625 -3.8 11.2
      vertex 39.6375 -3.8 11.2
    endloop
  endfacet
  facet normal 0 1 0
    outer loop
      vertex 29.2625 -3.8 11.2
      vertex 39.6375 -3.8 1.2
      vertex 29.2625 -3.8 1.2
    endloop
  endfacet
  facet normal 0 1 -0
    outer loop
      vertex 81.1625 -3.8 1.2
      vertex 56.4125 -3.8 11.2
      vertex 81.1625 -3.8 11.2
    endloop
  endfacet
  facet normal 0 1 0
    outer loop
      vertex 56.4125 -3.8 11.2
      vertex 81.1625 -3.8 1.2
      vertex 56.4125 -3.8 1.2
    endloop
  endfacet
  facet normal 0 1 -0
    outer loop
      vertex 108.312 -3.8 1.2
      vertex 97.9375 -3.8 11.2
      vertex 108.312 -3.8 11.2
    endloop
  endfacet
  facet normal 0 1 0
    outer loop
      vertex 97.9375 -3.8 11.2
      vertex 108.312 -3.8 1.2
      vertex 97.9375 -3.8 1.2
    endloop
  endfacet
  facet normal 0 1 -0
    outer loop
      vertex 135.462 -3.8 1.2
      vertex 125.088 -3.8 11.2
      vertex 135.462 -3.8 11.2
    endloop
  endfacet
  facet normal 0 1 0
    outer loop
      vertex 125.088 -3.8 11.2
      vertex 135.462 -3.8 1.2
      vertex 125.088 -3.8 1.2
    endloop
  endfacet
  facet normal 0 1 -0
    outer loop
      vertex 163.3 -3.8 1.2
      vertex 152.238 -3.8 11.2
      vertex 163.3 -3.8 11.2
    endloop
  endfacet
  facet normal 0 1 0
    outer loop
      vertex 152.238 -3.8 11.2
      vertex 163.3 -3.8 1.2
      vertex 152.238 -3.8 1.2
    endloop
  endfacet
  facet normal 0 1 0
    outer loop
      vertex 163.3 -3.8 11.2
      vertex 164.5 -3.8 14.7
      vertex 164.5 -3.8 11.2
    endloop
  endfacet
  facet normal 0 1 0
    outer loop
      vertex 152.238 -3.8 11.2
      vertex 164.5 -3.8 14.7
      vertex 163.3 -3.8 11.2
    endloop
  endfacet
  facet normal 0 1 0
    outer loop
      vertex 135.462 -3.8 11.2
      vertex 164.5 -3.8 14.7
      vertex 152.238 -3.8 11.2
    endloop
  endfacet
  facet normal 0 1 0
    outer loop
      vertex 125.088 -3.8 11.2
      vertex 164.5 -3.8 14.7
      vertex 135.462 -3.8 11.2
    endloop
  endfacet
  facet normal 0 1 0
    outer loop
      vertex 108.312 -3.8 11.2
      vertex 164.5 -3.8 14.7
      vertex 125.088 -3.8 11.2
    endloop
  endfacet
  facet normal 0 1 0
    outer loop
      vertex 97.9375 -3.8 11.2
      vertex 164.5 -3.8 14.7
      vertex 108.312 -3.8 11.2
    endloop
  endfacet
  facet normal 0 1 0
    outer loop
      vertex 164.5 -3.8 14.7
      vertex 97.9375 -3.8 11.2
      vertex 0 -3.8 14.7
    endloop
  endfacet
  facet normal 0 1 -0
    outer loop
      vertex 81.1625 -3.8 11.2
      vertex 0 -3.8 14.7
      vertex 97.9375 -3.8 11.2
    endloop
  endfacet
  facet normal 0 1 -0
    outer loop
      vertex 56.4125 -3.8 11.2
      vertex 0 -3.8 14.7
      vertex 81.1625 -3.8 11.2
    endloop
  endfacet
  facet normal 0 1 -0
    outer loop
      vertex 39.6375 -3.8 11.2
      vertex 0 -3.8 14.7
      vertex 56.4125 -3.8 11.2
    endloop
  endfacet
  facet normal 0 1 -0
    outer loop
      vertex 29.2625 -3.8 11.2
      vertex 0 -3.8 14.7
      vertex 39.6375 -3.8 11.2
    endloop
  endfacet
  facet normal 0 1 -0
    outer loop
      vertex 12.4875 -3.8 11.2
      vertex 0 -3.8 14.7
      vertex 29.2625 -3.8 11.2
    endloop
  endfacet
  facet normal 0 1 -0
    outer loop
      vertex 1.2 -3.8 11.2
      vertex 0 -3.8 14.7
      vertex 12.4875 -3.8 11.2
    endloop
  endfacet
  facet normal 0 1 0
    outer loop
      vertex 0 -3.8 14.7
      vertex 1.2 -3.8 11.2
      vertex 0 -3.8 11.2
    endloop
  endfacet
  facet normal -0 0 1
    outer loop
      vertex 0 -3.8 14.7
      vertex 164.5 -5 14.7
      vertex 164.5 -3.8 14.7
    endloop
  endfacet
  facet normal 0 0 1
    outer loop
      vertex 164.5 -5 14.7
      vertex 0 -3.8 14.7
      vertex 0 -5 14.7
    endloop
  endfacet
  facet normal 0 0 -1
    outer loop
      vertex 151.038 13.8 0
      vertex 164.5 15 0
      vertex 164.5 13.8 0
    endloop
  endfacet
  facet normal -0 0 -1
    outer loop
      vertex 164.5 15 0
      vertex 151.038 13.8 0
      vertex 151.038 15 0
    endloop
  endfacet
  facet normal 0 0 -1
    outer loop
      vertex 0 13.8 0
      vertex 13.6875 15 0
      vertex 13.6875 13.8 0
    endloop
  endfacet
  facet normal -0 0 -1
    outer loop
      vertex 13.6875 15 0
      vertex 0 13.8 0
      vertex 0 15 0
    endloop
  endfacet
  facet normal 0 0 -1
    outer loop
      vertex 28.0625 13.8 0
      vertex 40.8375 15 0
      vertex 40.8375 13.8 0
    endloop
  endfacet
  facet normal -0 0 -1
    outer loop
      vertex 40.8375 15 0
      vertex 28.0625 13.8 0
      vertex 28.0625 15 0
    endloop
  endfacet
  facet normal 0 0 -1
    outer loop
      vertex 55.2125 13.8 0
      vertex 82.3625 15 0
      vertex 82.3625 13.8 0
    endloop
  endfacet
  facet normal -0 0 -1
    outer loop
      vertex 82.3625 15 0
      vertex 55.2125 13.8 0
      vertex 55.2125 15 0
    endloop
  endfacet
  facet normal 0 0 -1
    outer loop
      vertex 96.7375 13.8 0
      vertex 109.512 15 0
      vertex 109.512 13.8 0
    endloop
  endfacet
  facet normal -0 0 -1
    outer loop
      vertex 109.512 15 0
      vertex 96.7375 13.8 0
      vertex 96.7375 15 0
    endloop
  endfacet
  facet normal 0 0 -1
    outer loop
      vertex 123.887 13.8 0
      vertex 136.663 15 0
      vertex 136.663 13.8 0
    endloop
  endfacet
  facet normal -0 0 -1
    outer loop
      vertex 136.663 15 0
      vertex 123.887 13.8 0
      vertex 123.887 15 0
    endloop
  endfacet
  facet normal 1 -0 0
    outer loop
      vertex 13.6875 13.8 10
      vertex 13.6875 15 0
      vertex 13.6875 15 10
    endloop
  endfacet
  facet normal 1 0 0
    outer loop
      vertex 13.6875 15 0
      vertex 13.6875 13.8 10
      vertex 13.6875 13.8 0
    endloop
  endfacet
  facet normal -1 0 0
    outer loop
      vertex 28.0625 13.8 0
      vertex 28.0625 15 10
      vertex 28.0625 15 0
    endloop
  endfacet
  facet normal -1 -0 0
    outer loop
      vertex 28.0625 15 10
      vertex 28.0625 13.8 0
      vertex 28.0625 13.8 10
    endloop
  endfacet
  facet normal 1 -0 0
    outer loop
      vertex 40.8375 13.8 10
      vertex 40.8375 15 0
      vertex 40.8375 15 10
    endloop
  endfacet
  facet normal 1 0 0
    outer loop
      vertex 40.8375 15 0
      vertex 40.8375 13.8 10
      vertex 40.8375 13.8 0
    endloop
  endfacet
  facet normal -1 0 0
    outer loop
      vertex 55.2125 13.8 0
      vertex 55.2125 15 10
      vertex 55.2125 15 0
    endloop
  endfacet
  facet normal -1 -0 0
    outer loop
      vertex 55.2125 15 10
      vertex 55.2125 13.8 0
      vertex 55.2125 13.8 10
    endloop
  endfacet
  facet normal 1 -0 0
    outer loop
      vertex 82.3625 13.8 10
      vertex 82.3625 15 0
      vertex 82.3625 15 10
    endloop
  endfacet
  facet normal 1 0 0
    outer loop
      vertex 82.3625 15 0
      vertex 82.3625 13.8 10
      vertex 82.3625 13.8 0
    endloop
  endfacet
  facet normal -1 0 0
    outer loop
      vertex 96.7375 13.8 0
      vertex 96.7375 15 10
      vertex 96.7375 15 0
    endloop
  endfacet
  facet normal -1 -0 0
    outer loop
      vertex 96.7375 15 10
      vertex 96.7375 13.8 0
      vertex 96.7375 13.8 10
    endloop
  endfacet
  facet normal 1 -0 0
    outer loop
      vertex 109.512 13.8 10
      vertex 109.512 15 0
      vertex 109.512 15 10
    endloop
  endfacet
  facet normal 1 0 0
    outer loop
      vertex 109.512 15 0
      vertex 109.512 13.8 10
      vertex 109.512 13.8 0
    endloop
  endfacet
  facet normal -1 0 0
    outer loop
      vertex 123.887 13.8 0
      vertex 123.887 15 10
      vertex 123.887 15 0
    endloop
  endfacet
  facet normal -1 -0 0
    outer loop
      vertex 123.887 15 10
      vertex 123.887 13.8 0
      vertex 123.887 13.8 10
    endloop
  endfacet
  facet normal 1 -0 0
    outer loop
      vertex 136.663 13.8 10
      vertex 136.663 15 0
      vertex 136.663 15 10
    endloop
  endfacet
  facet normal 1 0 0
    outer loop
      vertex 136.663 15 0
      vertex 136.663 13.8 10
      vertex 136.663 13.8 0
    endloop
  endfacet
  facet normal -1 0 0
    outer loop
      vertex 151.038 13.8 0
      vertex 151.038 15 10
      vertex 151.038 15 0
    endloop
  endfacet
  facet normal -1 -0 0
    outer loop
      vertex 151.038 15 10
      vertex 151.038 13.8 0
      vertex 151.038 13.8 10
    endloop
  endfacet
  facet normal 0 0 -1
    outer loop
      vertex 13.6875 13.8 10
      vertex 28.0625 15 10
      vertex 28.0625 13.8 10
    endloop
  endfacet
  facet normal -0 0 -1
    outer loop
      vertex 28.0625 15 10
      vertex 13.6875 13.8 10
      vertex 13.6875 15 10
    endloop
  endfacet
  facet normal 0 0 -1
    outer loop
      vertex 40.8375 13.8 10
      vertex 55.2125 15 10
      vertex 55.2125 13.8 10
    endloop
  endfacet
  facet normal -0 0 -1
    outer loop
      vertex 55.2125 15 10
      vertex 40.8375 13.8 10
      vertex 40.8375 15 10
    endloop
  endfacet
  facet normal 0 0 -1
    outer loop
      vertex 82.3625 13.8 10
      vertex 96.7375 15 10
      vertex 96.7375 13.8 10
    endloop
  endfacet
  facet normal -0 0 -1
    outer loop
      vertex 96.7375 15 10
      vertex 82.3625 13.8 10
      vertex 82.3625 15 10
    endloop
  endfacet
  facet normal 0 0 -1
    outer loop
      vertex 109.512 13.8 10
      vertex 123.887 15 10
      vertex 123.887 13.8 10
    endloop
  endfacet
  facet normal -0 0 -1
    outer loop
      vertex 123.887 15 10
      vertex 109.512 13.8 10
      vertex 109.512 15 10
    endloop
  endfacet
  facet normal 0 0 -1
    outer loop
      vertex 136.663 13.8 10
      vertex 151.038 15 10
      vertex 151.038 13.8 10
    endloop
  endfacet
  facet normal -0 0 -1
    outer loop
      vertex 151.038 15 10
      vertex 136.663 13.8 10
      vertex 136.663 15 10
    endloop
  endfacet
  facet normal -1 0 0
    outer loop
      vertex 0 6.2 20.7
      vertex 0 5 20.7
      vertex 0 6.2 24.2
    endloop
  endfacet
  facet normal -1 0 0
    outer loop
      vertex 0 13.8 24.2
      vertex 0 15 0
      vertex 0 13.8 0
    endloop
  endfacet
  facet normal -1 0 0
    outer loop
      vertex 0 15 0
      vertex 0 13.8 24.2
      vertex 0 15 25.4
    endloop
  endfacet
  facet normal -1 0 0
    outer loop
      vertex 0 6.2 24.2
      vertex 0 15 25.4
      vertex 0 13.8 24.2
    endloop
  endfacet
  facet normal -1 0 0
    outer loop
      vertex 0 6.2 24.2
      vertex 0 5 25.4
      vertex 0 15 25.4
    endloop
  endfacet
  facet normal -1 0 0
    outer loop
      vertex 0 5 25.4
      vertex 0 6.2 24.2
      vertex 0 5 20.7
    endloop
  endfacet
  facet normal -0 0 1
    outer loop
      vertex 0 15 25.4
      vertex 164.5 5 25.4
      vertex 164.5 15 25.4
    endloop
  endfacet
  facet normal 0 0 1
    outer loop
      vertex 164.5 5 25.4
      vertex 0 15 25.4
      vertex 0 5 25.4
    endloop
  endfacet
  facet normal 1 0 0
    outer loop
      vertex 164.5 15 25.4
      vertex 164.5 13.8 24.2
      vertex 164.5 15 0
    endloop
  endfacet
  facet normal 1 0 0
    outer loop
      vertex 164.5 15 25.4
      vertex 164.5 6.2 24.2
      vertex 164.5 13.8 24.2
    endloop
  endfacet
  facet normal 1 -0 0
    outer loop
      vertex 164.5 5 25.4
      vertex 164.5 6.2 24.2
      vertex 164.5 15 25.4
    endloop
  endfacet
  facet normal 1 0 0
    outer loop
      vertex 164.5 5 20.7
      vertex 164.5 6.2 24.2
      vertex 164.5 5 25.4
    endloop
  endfacet
  facet normal 1 0 0
    outer loop
      vertex 164.5 6.2 24.2
      vertex 164.5 5 20.7
      vertex 164.5 6.2 20.7
    endloop
  endfacet
  facet normal 1 0 0
    outer loop
      vertex 164.5 15 0
      vertex 164.5 13.8 24.2
      vertex 164.5 13.8 0
    endloop
  endfacet
  facet normal 0 -1 0
    outer loop
      vertex 0 5 20.7
      vertex 164.5 5 25.4
      vertex 0 5 25.4
    endloop
  endfacet
  facet normal 0 -1 -0
    outer loop
      vertex 164.5 5 25.4
      vertex 0 5 20.7
      vertex 164.5 5 20.7
    endloop
  endfacet
  facet normal 0 1 -0
    outer loop
      vertex 40.8375 15 0
      vertex 28.0625 15 10
      vertex 40.8375 15 10
    endloop
  endfacet
  facet normal 0 1 0
    outer loop
      vertex 28.0625 15 10
      vertex 40.8375 15 0
      vertex 28.0625 15 0
    endloop
  endfacet
  facet normal 0 1 -0
    outer loop
      vertex 82.3625 15 0
      vertex 55.2125 15 10
      vertex 82.3625 15 10
    endloop
  endfacet
  facet normal 0 1 0
    outer loop
      vertex 55.2125 15 10
      vertex 82.3625 15 0
      vertex 55.2125 15 0
    endloop
  endfacet
  facet normal 0 1 -0
    outer loop
      vertex 109.512 15 0
      vertex 96.7375 15 10
      vertex 109.512 15 10
    endloop
  endfacet
  facet normal 0 1 0
    outer loop
      vertex 96.7375 15 10
      vertex 109.512 15 0
      vertex 96.7375 15 0
    endloop
  endfacet
  facet normal 0 1 -0
    outer loop
      vertex 136.663 15 0
      vertex 123.887 15 10
      vertex 136.663 15 10
    endloop
  endfacet
  facet normal 0 1 0
    outer loop
      vertex 123.887 15 10
      vertex 136.663 15 0
      vertex 123.887 15 0
    endloop
  endfacet
  facet normal 0 1 0
    outer loop
      vertex 136.663 15 10
      vertex 164.5 15 25.4
      vertex 151.038 15 10
    endloop
  endfacet
  facet normal 0 1 -0
    outer loop
      vertex 164.5 15 0
      vertex 151.038 15 10
      vertex 164.5 15 25.4
    endloop
  endfacet
  facet normal 0 1 0
    outer loop
      vertex 151.038 15 10
      vertex 164.5 15 0
      vertex 151.038 15 0
    endloop
  endfacet
  facet normal 0 1 0
    outer loop
      vertex 123.887 15 10
      vertex 164.5 15 25.4
      vertex 136.663 15 10
    endloop
  endfacet
  facet normal 0 1 0
    outer loop
      vertex 109.512 15 10
      vertex 164.5 15 25.4
      vertex 123.887 15 10
    endloop
  endfacet
  facet normal 0 1 0
    outer loop
      vertex 96.7375 15 10
      vertex 164.5 15 25.4
      vertex 109.512 15 10
    endloop
  endfacet
  facet normal 0 1 0
    outer loop
      vertex 82.3625 15 10
      vertex 164.5 15 25.4
      vertex 96.7375 15 10
    endloop
  endfacet
  facet normal 0 1 0
    outer loop
      vertex 164.5 15 25.4
      vertex 82.3625 15 10
      vertex 0 15 25.4
    endloop
  endfacet
  facet normal 0 1 -0
    outer loop
      vertex 55.2125 15 10
      vertex 0 15 25.4
      vertex 82.3625 15 10
    endloop
  endfacet
  facet normal 0 1 -0
    outer loop
      vertex 40.8375 15 10
      vertex 0 15 25.4
      vertex 55.2125 15 10
    endloop
  endfacet
  facet normal 0 1 -0
    outer loop
      vertex 28.0625 15 10
      vertex 0 15 25.4
      vertex 40.8375 15 10
    endloop
  endfacet
  facet normal 0 1 -0
    outer loop
      vertex 13.6875 15 10
      vertex 0 15 25.4
      vertex 28.0625 15 10
    endloop
  endfacet
  facet normal 0 1 0
    outer loop
      vertex 0 15 0
      vertex 13.6875 15 10
      vertex 13.6875 15 0
    endloop
  endfacet
  facet normal 0 1 0
    outer loop
      vertex 13.6875 15 10
      vertex 0 15 0
      vertex 0 15 25.4
    endloop
  endfacet
  facet normal 0 0 -1
    outer loop
      vertex 164.5 6.2 24.2
      vertex 163.1 11.8 24.2
      vertex 164.5 13.8 24.2
    endloop
  endfacet
  facet normal 0 0 -1
    outer loop
      vertex 164.5 6.2 24.2
      vertex 160.7 7.9 24.2
      vertex 163.1 11.8 24.2
    endloop
  endfacet
  facet normal 0 0 -1
    outer loop
      vertex 164.5 6.2 24.2
      vertex 159.5 7.9 24.2
      vertex 160.7 7.9 24.2
    endloop
  endfacet
  facet normal 0 0 -1
    outer loop
      vertex 159.5 7.9 24.2
      vertex 153.046 7.9 24.2
      vertex 159.5 11.8 24.2
    endloop
  endfacet
  facet normal 0 0 -1
    outer loop
      vertex 164.5 6.2 24.2
      vertex 153.046 7.9 24.2
      vertex 159.5 7.9 24.2
    endloop
  endfacet
  facet normal 0 0 -1
    outer loop
      vertex 164.5 6.2 24.2
      vertex 151.846 7.9 24.2
      vertex 153.046 7.9 24.2
    endloop
  endfacet
  facet normal 0 0 -1
    outer loop
      vertex 151.846 7.9 24.2
      vertex 140.392 7.9 24.2
      vertex 151.846 11.8 24.2
    endloop
  endfacet
  facet normal 0 0 -1
    outer loop
      vertex 164.5 6.2 24.2
      vertex 140.392 7.9 24.2
      vertex 151.846 7.9 24.2
    endloop
  endfacet
  facet normal 0 0 -1
    outer loop
      vertex 164.5 6.2 24.2
      vertex 139.192 7.9 24.2
      vertex 140.392 7.9 24.2
    endloop
  endfacet
  facet normal 0 0 -1
    outer loop
      vertex 139.192 7.9 24.2
      vertex 127.738 7.9 24.2
      vertex 139.192 11.8 24.2
    endloop
  endfacet
  facet normal 0 0 -1
    outer loop
      vertex 164.5 6.2 24.2
      vertex 127.738 7.9 24.2
      vertex 139.192 7.9 24.2
    endloop
  endfacet
  facet normal 0 0 -1
    outer loop
      vertex 164.5 6.2 24.2
      vertex 126.538 7.9 24.2
      vertex 127.738 7.9 24.2
    endloop
  endfacet
  facet normal 0 0 -1
    outer loop
      vertex 126.538 7.9 24.2
      vertex 115.085 7.9 24.2
      vertex 126.538 11.8 24.2
    endloop
  endfacet
  facet normal 0 0 -1
    outer loop
      vertex 164.5 6.2 24.2
      vertex 115.085 7.9 24.2
      vertex 126.538 7.9 24.2
    endloop
  endfacet
  facet normal 0 0 -1
    outer loop
      vertex 164.5 6.2 24.2
      vertex 113.885 7.9 24.2
      vertex 115.085 7.9 24.2
    endloop
  endfacet
  facet normal 0 0 -1
    outer loop
      vertex 113.885 7.9 24.2
      vertex 102.431 7.9 24.2
      vertex 113.885 11.8 24.2
    endloop
  endfacet
  facet normal 0 0 -1
    outer loop
      vertex 164.5 6.2 24.2
      vertex 102.431 7.9 24.2
      vertex 113.885 7.9 24.2
    endloop
  endfacet
  facet normal 0 0 -1
    outer loop
      vertex 164.5 6.2 24.2
      vertex 101.231 7.9 24.2
      vertex 102.431 7.9 24.2
    endloop
  endfacet
  facet normal 0 0 -1
    outer loop
      vertex 101.231 7.9 24.2
      vertex 89.7769 7.9 24.2
      vertex 101.231 11.8 24.2
    endloop
  endfacet
  facet normal 0 0 -1
    outer loop
      vertex 164.5 6.2 24.2
      vertex 89.7769 7.9 24.2
      vertex 101.231 7.9 24.2
    endloop
  endfacet
  facet normal 0 0 -1
    outer loop
      vertex 164.5 6.2 24.2
      vertex 88.5769 7.9 24.2
      vertex 89.7769 7.9 24.2
    endloop
  endfacet
  facet normal 0 0 -1
    outer loop
      vertex 88.5769 7.9 24.2
      vertex 77.1231 7.9 24.2
      vertex 88.5769 11.8 24.2
    endloop
  endfacet
  facet normal 0 0 -1
    outer loop
      vertex 164.5 6.2 24.2
      vertex 77.1231 7.9 24.2
      vertex 88.5769 7.9 24.2
    endloop
  endfacet
  facet normal 0 0 -1
    outer loop
      vertex 164.5 6.2 24.2
      vertex 75.9231 7.9 24.2
      vertex 77.1231 7.9 24.2
    endloop
  endfacet
  facet normal 0 0 -1
    outer loop
      vertex 75.9231 7.9 24.2
      vertex 64.4692 7.9 24.2
      vertex 75.9231 11.8 24.2
    endloop
  endfacet
  facet normal 0 0 -1
    outer loop
      vertex 164.5 6.2 24.2
      vertex 64.4692 7.9 24.2
      vertex 75.9231 7.9 24.2
    endloop
  endfacet
  facet normal 0 0 -1
    outer loop
      vertex 164.5 6.2 24.2
      vertex 63.2692 7.9 24.2
      vertex 64.4692 7.9 24.2
    endloop
  endfacet
  facet normal 0 0 -1
    outer loop
      vertex 63.2692 7.9 24.2
      vertex 51.8154 7.9 24.2
      vertex 63.2692 11.8 24.2
    endloop
  endfacet
  facet normal 0 0 -1
    outer loop
      vertex 0 6.2 24.2
      vertex 63.2692 7.9 24.2
      vertex 164.5 6.2 24.2
    endloop
  endfacet
  facet normal -0 0 -1
    outer loop
      vertex 63.2692 7.9 24.2
      vertex 0 6.2 24.2
      vertex 51.8154 7.9 24.2
    endloop
  endfacet
  facet normal 0 0 -1
    outer loop
      vertex 50.6154 7.9 24.2
      vertex 39.1615 7.9 24.2
      vertex 50.6154 11.8 24.2
    endloop
  endfacet
  facet normal -0 0 -1
    outer loop
      vertex 51.8154 7.9 24.2
      vertex 0 6.2 24.2
      vertex 50.6154 7.9 24.2
    endloop
  endfacet
  facet normal -0 0 -1
    outer loop
      vertex 50.6154 7.9 24.2
      vertex 0 6.2 24.2
      vertex 39.1615 7.9 24.2
    endloop
  endfacet
  facet normal 0 0 -1
    outer loop
      vertex 37.9615 7.9 24.2
      vertex 26.5077 7.9 24.2
      vertex 37.9615 11.8 24.2
    endloop
  endfacet
  facet normal -0 0 -1
    outer loop
      vertex 39.1615 7.9 24.2
      vertex 0 6.2 24.2
      vertex 37.9615 7.9 24.2
    endloop
  endfacet
  facet normal -0 0 -1
    outer loop
      vertex 37.9615 7.9 24.2
      vertex 0 6.2 24.2
      vertex 26.5077 7.9 24.2
    endloop
  endfacet
  facet normal 0 0 -1
    outer loop
      vertex 25.3077 7.9 24.2
      vertex 13.8538 7.9 24.2
      vertex 25.3077 11.8 24.2
    endloop
  endfacet
  facet normal -0 0 -1
    outer loop
      vertex 26.5077 7.9 24.2
      vertex 0 6.2 24.2
      vertex 25.3077 7.9 24.2
    endloop
  endfacet
  facet normal -0 0 -1
    outer loop
      vertex 25.3077 7.9 24.2
      vertex 0 6.2 24.2
      vertex 13.8538 7.9 24.2
    endloop
  endfacet
  facet normal 0 0 -1
    outer loop
      vertex 12.6538 7.9 24.2
      vertex 6.2 7.9 24.2
      vertex 12.6538 11.8 24.2
    endloop
  endfacet
  facet normal -0 0 -1
    outer loop
      vertex 13.8538 7.9 24.2
      vertex 0 6.2 24.2
      vertex 12.6538 7.9 24.2
    endloop
  endfacet
  facet normal -0 0 -1
    outer loop
      vertex 12.6538 7.9 24.2
      vertex 0 6.2 24.2
      vertex 6.2 7.9 24.2
    endloop
  endfacet
  facet normal 0 0 -1
    outer loop
      vertex 5 7.9 24.2
      vertex 1.4 11.8 24.2
      vertex 5 11.8 24.2
    endloop
  endfacet
  facet normal -0 0 -1
    outer loop
      vertex 6.2 7.9 24.2
      vertex 0 6.2 24.2
      vertex 5 7.9 24.2
    endloop
  endfacet
  facet normal 0 0 -1
    outer loop
      vertex 0 6.2 24.2
      vertex 1.4 11.8 24.2
      vertex 5 7.9 24.2
    endloop
  endfacet
  facet normal 0 0 -1
    outer loop
      vertex 0 13.8 24.2
      vertex 1.4 11.8 24.2
      vertex 0 6.2 24.2
    endloop
  endfacet
  facet normal 0 0 -1
    outer loop
      vertex 1.4 11.8 24.2
      vertex 0 13.8 24.2
      vertex 1.4 13.8 24.2
    endloop
  endfacet
  facet normal -0 0 -1
    outer loop
      vertex 164.5 13.8 24.2
      vertex 163.1 11.8 24.2
      vertex 163.1 13.8 24.2
    endloop
  endfacet
  facet normal -0 0 -1
    outer loop
      vertex 163.1 11.8 24.2
      vertex 160.7 7.9 24.2
      vertex 160.7 11.8 24.2
    endloop
  endfacet
  facet normal -0 0 -1
    outer loop
      vertex 159.5 11.8 24.2
      vertex 153.046 7.9 24.2
      vertex 153.046 11.8 24.2
    endloop
  endfacet
  facet normal -0 0 -1
    outer loop
      vertex 151.846 11.8 24.2
      vertex 140.392 7.9 24.2
      vertex 140.392 11.8 24.2
    endloop
  endfacet
  facet normal -0 0 -1
    outer loop
      vertex 139.192 11.8 24.2
      vertex 127.738 7.9 24.2
      vertex 127.738 11.8 24.2
    endloop
  endfacet
  facet normal -0 0 -1
    outer loop
      vertex 126.538 11.8 24.2
      vertex 115.085 7.9 24.2
      vertex 115.085 11.8 24.2
    endloop
  endfacet
  facet normal -0 0 -1
    outer loop
      vertex 113.885 11.8 24.2
      vertex 102.431 7.9 24.2
      vertex 102.431 11.8 24.2
    endloop
  endfacet
  facet normal -0 0 -1
    outer loop
      vertex 101.231 11.8 24.2
      vertex 89.7769 7.9 24.2
      vertex 89.7769 11.8 24.2
    endloop
  endfacet
  facet normal -0 0 -1
    outer loop
      vertex 88.5769 11.8 24.2
      vertex 77.1231 7.9 24.2
      vertex 77.1231 11.8 24.2
    endloop
  endfacet
  facet normal -0 0 -1
    outer loop
      vertex 75.9231 11.8 24.2
      vertex 64.4692 7.9 24.2
      vertex 64.4692 11.8 24.2
    endloop
  endfacet
  facet normal -0 0 -1
    outer loop
      vertex 63.2692 11.8 24.2
      vertex 51.8154 7.9 24.2
      vertex 51.8154 11.8 24.2
    endloop
  endfacet
  facet normal -0 0 -1
    outer loop
      vertex 50.6154 11.8 24.2
      vertex 39.1615 7.9 24.2
      vertex 39.1615 11.8 24.2
    endloop
  endfacet
  facet normal -0 0 -1
    outer loop
      vertex 37.9615 11.8 24.2
      vertex 26.5077 7.9 24.2
      vertex 26.5077 11.8 24.2
    endloop
  endfacet
  facet normal -0 0 -1
    outer loop
      vertex 25.3077 11.8 24.2
      vertex 13.8538 7.9 24.2
      vertex 13.8538 11.8 24.2
    endloop
  endfacet
  facet normal -0 0 -1
    outer loop
      vertex 12.6538 11.8 24.2
      vertex 6.2 7.9 24.2
      vertex 6.2 11.8 24.2
    endloop
  endfacet
  facet normal 0 -1 0
    outer loop
      vertex 0 13.8 24.2
      vertex 1.4 13.8 1.4
      vertex 1.4 13.8 24.2
    endloop
  endfacet
  facet normal 0 -1 -0
    outer loop
      vertex 1.4 13.8 1.4
      vertex 0 13.8 0
      vertex 12.2875 13.8 1.4
    endloop
  endfacet
  facet normal 0 -1 0
    outer loop
      vertex 0 13.8 0
      vertex 1.4 13.8 1.4
      vertex 0 13.8 24.2
    endloop
  endfacet
  facet normal 0 -1 0
    outer loop
      vertex 12.2875 13.8 11.4
      vertex 13.6875 13.8 10
      vertex 29.4625 13.8 11.4
    endloop
  endfacet
  facet normal 0 -1 0
    outer loop
      vertex 12.2875 13.8 1.4
      vertex 13.6875 13.8 10
      vertex 12.2875 13.8 11.4
    endloop
  endfacet
  facet normal 0 -1 0
    outer loop
      vertex 12.2875 13.8 1.4
      vertex 13.6875 13.8 0
      vertex 13.6875 13.8 10
    endloop
  endfacet
  facet normal 0 -1 0
    outer loop
      vertex 13.6875 13.8 0
      vertex 12.2875 13.8 1.4
      vertex 0 13.8 0
    endloop
  endfacet
  facet normal 0 -1 0
    outer loop
      vertex 28.0625 13.8 10
      vertex 29.4625 13.8 11.4
      vertex 13.6875 13.8 10
    endloop
  endfacet
  facet normal 0 -1 0
    outer loop
      vertex 28.0625 13.8 10
      vertex 29.4625 13.8 1.4
      vertex 29.4625 13.8 11.4
    endloop
  endfacet
  facet normal 0 -1 -0
    outer loop
      vertex 29.4625 13.8 1.4
      vertex 28.0625 13.8 0
      vertex 39.4375 13.8 1.4
    endloop
  endfacet
  facet normal 0 -1 0
    outer loop
      vertex 28.0625 13.8 0
      vertex 29.4625 13.8 1.4
      vertex 28.0625 13.8 10
    endloop
  endfacet
  facet normal 0 -1 0
    outer loop
      vertex 39.4375 13.8 11.4
      vertex 40.8375 13.8 10
      vertex 56.6125 13.8 11.4
    endloop
  endfacet
  facet normal 0 -1 0
    outer loop
      vertex 39.4375 13.8 1.4
      vertex 40.8375 13.8 10
      vertex 39.4375 13.8 11.4
    endloop
  endfacet
  facet normal 0 -1 0
    outer loop
      vertex 39.4375 13.8 1.4
      vertex 40.8375 13.8 0
      vertex 40.8375 13.8 10
    endloop
  endfacet
  facet normal 0 -1 0
    outer loop
      vertex 40.8375 13.8 0
      vertex 39.4375 13.8 1.4
      vertex 28.0625 13.8 0
    endloop
  endfacet
  facet normal 0 -1 0
    outer loop
      vertex 55.2125 13.8 10
      vertex 56.6125 13.8 11.4
      vertex 40.8375 13.8 10
    endloop
  endfacet
  facet normal 0 -1 0
    outer loop
      vertex 55.2125 13.8 10
      vertex 56.6125 13.8 1.4
      vertex 56.6125 13.8 11.4
    endloop
  endfacet
  facet normal 0 -1 -0
    outer loop
      vertex 56.6125 13.8 1.4
      vertex 55.2125 13.8 0
      vertex 80.9625 13.8 1.4
    endloop
  endfacet
  facet normal 0 -1 0
    outer loop
      vertex 55.2125 13.8 0
      vertex 56.6125 13.8 1.4
      vertex 55.2125 13.8 10
    endloop
  endfacet
  facet normal 0 -1 0
    outer loop
      vertex 80.9625 13.8 11.4
      vertex 82.3625 13.8 10
      vertex 98.1375 13.8 11.4
    endloop
  endfacet
  facet normal 0 -1 0
    outer loop
      vertex 80.9625 13.8 1.4
      vertex 82.3625 13.8 10
      vertex 80.9625 13.8 11.4
    endloop
  endfacet
  facet normal 0 -1 0
    outer loop
      vertex 80.9625 13.8 1.4
      vertex 82.3625 13.8 0
      vertex 82.3625 13.8 10
    endloop
  endfacet
  facet normal 0 -1 0
    outer loop
      vertex 82.3625 13.8 0
      vertex 80.9625 13.8 1.4
      vertex 55.2125 13.8 0
    endloop
  endfacet
  facet normal 0 -1 0
    outer loop
      vertex 96.7375 13.8 10
      vertex 98.1375 13.8 11.4
      vertex 82.3625 13.8 10
    endloop
  endfacet
  facet normal 0 -1 0
    outer loop
      vertex 96.7375 13.8 10
      vertex 98.1375 13.8 1.4
      vertex 98.1375 13.8 11.4
    endloop
  endfacet
  facet normal 0 -1 -0
    outer loop
      vertex 98.1375 13.8 1.4
      vertex 96.7375 13.8 0
      vertex 108.113 13.8 1.4
    endloop
  endfacet
  facet normal 0 -1 0
    outer loop
      vertex 96.7375 13.8 0
      vertex 98.1375 13.8 1.4
      vertex 96.7375 13.8 10
    endloop
  endfacet
  facet normal 0 -1 0
    outer loop
      vertex 108.113 13.8 11.4
      vertex 109.512 13.8 10
      vertex 125.287 13.8 11.4
    endloop
  endfacet
  facet normal 0 -1 0
    outer loop
      vertex 108.113 13.8 1.4
      vertex 109.512 13.8 10
      vertex 108.113 13.8 11.4
    endloop
  endfacet
  facet normal 0 -1 0
    outer loop
      vertex 108.113 13.8 1.4
      vertex 109.512 13.8 0
      vertex 109.512 13.8 10
    endloop
  endfacet
  facet normal 0 -1 0
    outer loop
      vertex 109.512 13.8 0
      vertex 108.113 13.8 1.4
      vertex 96.7375 13.8 0
    endloop
  endfacet
  facet normal 0 -1 0
    outer loop
      vertex 123.887 13.8 10
      vertex 125.287 13.8 11.4
      vertex 109.512 13.8 10
    endloop
  endfacet
  facet normal 0 -1 0
    outer loop
      vertex 123.887 13.8 10
      vertex 125.287 13.8 1.4
      vertex 125.287 13.8 11.4
    endloop
  endfacet
  facet normal 0 -1 -0
    outer loop
      vertex 125.287 13.8 1.4
      vertex 123.887 13.8 0
      vertex 135.262 13.8 1.4
    endloop
  endfacet
  facet normal 0 -1 0
    outer loop
      vertex 123.887 13.8 0
      vertex 125.287 13.8 1.4
      vertex 123.887 13.8 10
    endloop
  endfacet
  facet normal 0 -1 0
    outer loop
      vertex 135.262 13.8 11.4
      vertex 136.663 13.8 10
      vertex 152.438 13.8 11.4
    endloop
  endfacet
  facet normal 0 -1 0
    outer loop
      vertex 135.262 13.8 1.4
      vertex 136.663 13.8 10
      vertex 135.262 13.8 11.4
    endloop
  endfacet
  facet normal 0 -1 0
    outer loop
      vertex 135.262 13.8 1.4
      vertex 136.663 13.8 0
      vertex 136.663 13.8 10
    endloop
  endfacet
  facet normal 0 -1 0
    outer loop
      vertex 136.663 13.8 0
      vertex 135.262 13.8 1.4
      vertex 123.887 13.8 0
    endloop
  endfacet
  facet normal 0 -1 0
    outer loop
      vertex 151.038 13.8 10
      vertex 152.438 13.8 11.4
      vertex 136.663 13.8 10
    endloop
  endfacet
  facet normal 0 -1 0
    outer loop
      vertex 151.038 13.8 10
      vertex 152.438 13.8 1.4
      vertex 152.438 13.8 11.4
    endloop
  endfacet
  facet normal 0 -1 -0
    outer loop
      vertex 152.438 13.8 1.4
      vertex 151.038 13.8 0
      vertex 163.1 13.8 1.4
    endloop
  endfacet
  facet normal 0 -1 0
    outer loop
      vertex 151.038 13.8 0
      vertex 152.438 13.8 1.4
      vertex 151.038 13.8 10
    endloop
  endfacet
  facet normal 0 -1 0
    outer loop
      vertex 163.1 13.8 1.4
      vertex 164.5 13.8 24.2
      vertex 163.1 13.8 24.2
    endloop
  endfacet
  facet normal 0 -1 0
    outer loop
      vertex 163.1 13.8 1.4
      vertex 164.5 13.8 0
      vertex 164.5 13.8 24.2
    endloop
  endfacet
  facet normal 0 -1 0
    outer loop
      vertex 164.5 13.8 0
      vertex 163.1 13.8 1.4
      vertex 151.038 13.8 0
    endloop
  endfacet
  facet normal 0 1 -0
    outer loop
      vertex 164.5 6.2 20.7
      vertex 0 6.2 24.2
      vertex 164.5 6.2 24.2
    endloop
  endfacet
  facet normal 0 1 0
    outer loop
      vertex 0 6.2 24.2
      vertex 164.5 6.2 20.7
      vertex 0 6.2 20.7
    endloop
  endfacet
  facet normal 0 0 -1
    outer loop
      vertex 0 5 20.7
      vertex 164.5 6.2 20.7
      vertex 164.5 5 20.7
    endloop
  endfacet
  facet normal -0 0 -1
    outer loop
      vertex 164.5 6.2 20.7
      vertex 0 5 20.7
      vertex 0 6.2 20.7
    endloop
  endfacet
  facet normal 1 -0 0
    outer loop
      vertex 12.2875 11.8 11.4
      vertex 12.2875 13.8 1.4
      vertex 12.2875 13.8 11.4
    endloop
  endfacet
  facet normal 1 0 0
    outer loop
      vertex 12.2875 13.8 1.4
      vertex 12.2875 11.8 11.4
      vertex 12.2875 11.8 1.4
    endloop
  endfacet
  facet normal 0 0 -1
    outer loop
      vertex 12.2875 11.8 11.4
      vertex 29.4625 13.8 11.4
      vertex 29.4625 11.8 11.4
    endloop
  endfacet
  facet normal -0 0 -1
    outer loop
      vertex 29.4625 13.8 11.4
      vertex 12.2875 11.8 11.4
      vertex 12.2875 13.8 11.4
    endloop
  endfacet
  facet normal -1 0 0
    outer loop
      vertex 29.4625 11.8 1.4
      vertex 29.4625 13.8 11.4
      vertex 29.4625 13.8 1.4
    endloop
  endfacet
  facet normal -1 -0 0
    outer loop
      vertex 29.4625 13.8 11.4
      vertex 29.4625 11.8 1.4
      vertex 29.4625 11.8 11.4
    endloop
  endfacet
  facet normal 1 -0 0
    outer loop
      vertex 39.4375 11.8 11.4
      vertex 39.4375 13.8 1.4
      vertex 39.4375 13.8 11.4
    endloop
  endfacet
  facet normal 1 0 0
    outer loop
      vertex 39.4375 13.8 1.4
      vertex 39.4375 11.8 11.4
      vertex 39.4375 11.8 1.4
    endloop
  endfacet
  facet normal 0 0 -1
    outer loop
      vertex 39.4375 11.8 11.4
      vertex 56.6125 13.8 11.4
      vertex 56.6125 11.8 11.4
    endloop
  endfacet
  facet normal -0 0 -1
    outer loop
      vertex 56.6125 13.8 11.4
      vertex 39.4375 11.8 11.4
      vertex 39.4375 13.8 11.4
    endloop
  endfacet
  facet normal -1 0 0
    outer loop
      vertex 56.6125 11.8 1.4
      vertex 56.6125 13.8 11.4
      vertex 56.6125 13.8 1.4
    endloop
  endfacet
  facet normal -1 -0 0
    outer loop
      vertex 56.6125 13.8 11.4
      vertex 56.6125 11.8 1.4
      vertex 56.6125 11.8 11.4
    endloop
  endfacet
  facet normal 1 -0 0
    outer loop
      vertex 80.9625 11.8 11.4
      vertex 80.9625 13.8 1.4
      vertex 80.9625 13.8 11.4
    endloop
  endfacet
  facet normal 1 0 0
    outer loop
      vertex 80.9625 13.8 1.4
      vertex 80.9625 11.8 11.4
      vertex 80.9625 11.8 1.4
    endloop
  endfacet
  facet normal 0 0 -1
    outer loop
      vertex 80.9625 11.8 11.4
      vertex 98.1375 13.8 11.4
      vertex 98.1375 11.8 11.4
    endloop
  endfacet
  facet normal -0 0 -1
    outer loop
      vertex 98.1375 13.8 11.4
      vertex 80.9625 11.8 11.4
      vertex 80.9625 13.8 11.4
    endloop
  endfacet
  facet normal -1 0 0
    outer loop
      vertex 98.1375 11.8 1.4
      vertex 98.1375 13.8 11.4
      vertex 98.1375 13.8 1.4
    endloop
  endfacet
  facet normal -1 -0 0
    outer loop
      vertex 98.1375 13.8 11.4
      vertex 98.1375 11.8 1.4
      vertex 98.1375 11.8 11.4
    endloop
  endfacet
  facet normal 1 -0 0
    outer loop
      vertex 108.113 11.8 11.4
      vertex 108.113 13.8 1.4
      vertex 108.113 13.8 11.4
    endloop
  endfacet
  facet normal 1 0 0
    outer loop
      vertex 108.113 13.8 1.4
      vertex 108.113 11.8 11.4
      vertex 108.113 11.8 1.4
    endloop
  endfacet
  facet normal 0 0 -1
    outer loop
      vertex 108.113 11.8 11.4
      vertex 125.287 13.8 11.4
      vertex 125.287 11.8 11.4
    endloop
  endfacet
  facet normal -0 0 -1
    outer loop
      vertex 125.287 13.8 11.4
      vertex 108.113 11.8 11.4
      vertex 108.113 13.8 11.4
    endloop
  endfacet
  facet normal -1 0 0
    outer loop
      vertex 125.287 11.8 1.4
      vertex 125.287 13.8 11.4
      vertex 125.287 13.8 1.4
    endloop
  endfacet
  facet normal -1 -0 0
    outer loop
      vertex 125.287 13.8 11.4
      vertex 125.287 11.8 1.4
      vertex 125.287 11.8 11.4
    endloop
  endfacet
  facet normal 1 -0 0
    outer loop
      vertex 135.262 11.8 11.4
      vertex 135.262 13.8 1.4
      vertex 135.262 13.8 11.4
    endloop
  endfacet
  facet normal 1 0 0
    outer loop
      vertex 135.262 13.8 1.4
      vertex 135.262 11.8 11.4
      vertex 135.262 11.8 1.4
    endloop
  endfacet
  facet normal 0 0 -1
    outer loop
      vertex 135.262 11.8 11.4
      vertex 152.438 13.8 11.4
      vertex 152.438 11.8 11.4
    endloop
  endfacet
  facet normal -0 0 -1
    outer loop
      vertex 152.438 13.8 11.4
      vertex 135.262 11.8 11.4
      vertex 135.262 13.8 11.4
    endloop
  endfacet
  facet normal -1 0 0
    outer loop
      vertex 152.438 11.8 1.4
      vertex 152.438 13.8 11.4
      vertex 152.438 13.8 1.4
    endloop
  endfacet
  facet normal -1 -0 0
    outer loop
      vertex 152.438 13.8 11.4
      vertex 152.438 11.8 1.4
      vertex 152.438 11.8 11.4
    endloop
  endfacet
  facet normal -1 0 0
    outer loop
      vertex 1.4 11.8 1.4
      vertex 1.4 13.8 24.2
      vertex 1.4 13.8 1.4
    endloop
  endfacet
  facet normal -1 -0 0
    outer loop
      vertex 1.4 13.8 24.2
      vertex 1.4 11.8 1.4
      vertex 1.4 11.8 24.2
    endloop
  endfacet
  facet normal 1 -0 0
    outer loop
      vertex 163.1 11.8 24.2
      vertex 163.1 13.8 1.4
      vertex 163.1 13.8 24.2
    endloop
  endfacet
  facet normal 1 0 0
    outer loop
      vertex 163.1 13.8 1.4
      vertex 163.1 11.8 24.2
      vertex 163.1 11.8 1.4
    endloop
  endfacet
  facet normal 0 0 -1
    outer loop
      vertex 1.4 11.8 1.4
      vertex 12.2875 13.8 1.4
      vertex 12.2875 11.8 1.4
    endloop
  endfacet
  facet normal -0 0 -1
    outer loop
      vertex 12.2875 13.8 1.4
      vertex 1.4 11.8 1.4
      vertex 1.4 13.8 1.4
    endloop
  endfacet
  facet normal 0 0 -1
    outer loop
      vertex 152.438 11.8 1.4
      vertex 163.1 13.8 1.4
      vertex 163.1 11.8 1.4
    endloop
  endfacet
  facet normal -0 0 -1
    outer loop
      vertex 163.1 13.8 1.4
      vertex 152.438 11.8 1.4
      vertex 152.438 13.8 1.4
    endloop
  endfacet
  facet normal 0 0 -1
    outer loop
      vertex 29.4625 11.8 1.4
      vertex 39.4375 13.8 1.4
      vertex 39.4375 11.8 1.4
    endloop
  endfacet
  facet normal -0 0 -1
    outer loop
      vertex 39.4375 13.8 1.4
      vertex 29.4625 11.8 1.4
      vertex 29.4625 13.8 1.4
    endloop
  endfacet
  facet normal 0 0 -1
    outer loop
      vertex 56.6125 11.8 1.4
      vertex 80.9625 13.8 1.4
      vertex 80.9625 11.8 1.4
    endloop
  endfacet
  facet normal -0 0 -1
    outer loop
      vertex 80.9625 13.8 1.4
      vertex 56.6125 11.8 1.4
      vertex 56.6125 13.8 1.4
    endloop
  endfacet
  facet normal 0 0 -1
    outer loop
      vertex 98.1375 11.8 1.4
      vertex 108.113 13.8 1.4
      vertex 108.113 11.8 1.4
    endloop
  endfacet
  facet normal -0 0 -1
    outer loop
      vertex 108.113 13.8 1.4
      vertex 98.1375 11.8 1.4
      vertex 98.1375 13.8 1.4
    endloop
  endfacet
  facet normal 0 0 -1
    outer loop
      vertex 125.287 11.8 1.4
      vertex 135.262 13.8 1.4
      vertex 135.262 11.8 1.4
    endloop
  endfacet
  facet normal -0 0 -1
    outer loop
      vertex 135.262 13.8 1.4
      vertex 125.287 11.8 1.4
      vertex 125.287 13.8 1.4
    endloop
  endfacet
  facet normal 0 -1 0
    outer loop
      vertex 125.287 11.8 1.4
      vertex 135.262 11.8 11.4
      vertex 125.287 11.8 11.4
    endloop
  endfacet
  facet normal 0 -1 -0
    outer loop
      vertex 135.262 11.8 11.4
      vertex 125.287 11.8 1.4
      vertex 135.262 11.8 1.4
    endloop
  endfacet
  facet normal 0 -1 0
    outer loop
      vertex 98.1375 11.8 1.4
      vertex 108.113 11.8 11.4
      vertex 98.1375 11.8 11.4
    endloop
  endfacet
  facet normal 0 -1 -0
    outer loop
      vertex 108.113 11.8 11.4
      vertex 98.1375 11.8 1.4
      vertex 108.113 11.8 1.4
    endloop
  endfacet
  facet normal 0 -1 0
    outer loop
      vertex 64.4692 11.8 14.7
      vertex 80.9625 11.8 1.4
      vertex 75.9231 11.8 14.7
    endloop
  endfacet
  facet normal 0 -1 0
    outer loop
      vertex 75.9231 11.8 14.7
      vertex 80.9625 11.8 1.4
      vertex 80.9625 11.8 11.4
    endloop
  endfacet
  facet normal 0 -1 0
    outer loop
      vertex 29.4625 11.8 1.4
      vertex 39.4375 11.8 11.4
      vertex 29.4625 11.8 11.4
    endloop
  endfacet
  facet normal 0 -1 -0
    outer loop
      vertex 39.4375 11.8 11.4
      vertex 29.4625 11.8 1.4
      vertex 39.4375 11.8 1.4
    endloop
  endfacet
  facet normal 0 -1 0
    outer loop
      vertex 1.4 11.8 24.2
      vertex 5 11.8 14.7
      vertex 5 11.8 24.2
    endloop
  endfacet
  facet normal 0 -1 0
    outer loop
      vertex 1.4 11.8 1.4
      vertex 6.2 11.8 14.7
      vertex 5 11.8 14.7
    endloop
  endfacet
  facet normal 0 -1 0
    outer loop
      vertex 6.2 11.8 14.7
      vertex 12.2875 11.8 11.4
      vertex 12.6538 11.8 14.7
    endloop
  endfacet
  facet normal 0 -1 -0
    outer loop
      vertex 12.6538 11.8 14.7
      vertex 12.2875 11.8 11.4
      vertex 13.8538 11.8 14.7
    endloop
  endfacet
  facet normal 0 -1 -0
    outer loop
      vertex 13.8538 11.8 14.7
      vertex 12.2875 11.8 11.4
      vertex 25.3077 11.8 14.7
    endloop
  endfacet
  facet normal 0 -1 0
    outer loop
      vertex 29.4625 11.8 11.4
      vertex 25.3077 11.8 14.7
      vertex 12.2875 11.8 11.4
    endloop
  endfacet
  facet normal 0 -1 0
    outer loop
      vertex 26.5077 11.8 14.7
      vertex 29.4625 11.8 11.4
      vertex 37.9615 11.8 14.7
    endloop
  endfacet
  facet normal 0 -1 0
    outer loop
      vertex 39.4375 11.8 11.4
      vertex 37.9615 11.8 14.7
      vertex 29.4625 11.8 11.4
    endloop
  endfacet
  facet normal 0 -1 0
    outer loop
      vertex 37.9615 11.8 14.7
      vertex 39.4375 11.8 11.4
      vertex 39.1615 11.8 14.7
    endloop
  endfacet
  facet normal 0 -1 0
    outer loop
      vertex 39.1615 11.8 14.7
      vertex 39.4375 11.8 11.4
      vertex 50.6154 11.8 14.7
    endloop
  endfacet
  facet normal 0 -1 0
    outer loop
      vertex 50.6154 11.8 14.7
      vertex 56.6125 11.8 11.4
      vertex 51.8154 11.8 14.7
    endloop
  endfacet
  facet normal 0 -1 0
    outer loop
      vertex 51.8154 11.8 14.7
      vertex 56.6125 11.8 11.4
      vertex 63.2692 11.8 14.7
    endloop
  endfacet
  facet normal 0 -1 0
    outer loop
      vertex 56.6125 11.8 1.4
      vertex 63.2692 11.8 14.7
      vertex 56.6125 11.8 11.4
    endloop
  endfacet
  facet normal 0 -1 -0
    outer loop
      vertex 63.2692 11.8 14.7
      vertex 56.6125 11.8 1.4
      vertex 64.4692 11.8 14.7
    endloop
  endfacet
  facet normal 0 -1 0
    outer loop
      vertex 75.9231 11.8 14.7
      vertex 80.9625 11.8 11.4
      vertex 77.1231 11.8 14.7
    endloop
  endfacet
  facet normal 0 -1 0
    outer loop
      vertex 77.1231 11.8 14.7
      vertex 80.9625 11.8 11.4
      vertex 88.5769 11.8 14.7
    endloop
  endfacet
  facet normal 0 -1 -0
    outer loop
      vertex 88.5769 11.8 14.7
      vertex 80.9625 11.8 11.4
      vertex 89.7769 11.8 14.7
    endloop
  endfacet
  facet normal 0 -1 0
    outer loop
      vertex 98.1375 11.8 11.4
      vertex 89.7769 11.8 14.7
      vertex 80.9625 11.8 11.4
    endloop
  endfacet
  facet normal 0 -1 0
    outer loop
      vertex 89.7769 11.8 14.7
      vertex 98.1375 11.8 11.4
      vertex 101.231 11.8 14.7
    endloop
  endfacet
  facet normal 0 -1 -0
    outer loop
      vertex 101.231 11.8 14.7
      vertex 98.1375 11.8 11.4
      vertex 102.431 11.8 14.7
    endloop
  endfacet
  facet normal 0 -1 0
    outer loop
      vertex 102.431 11.8 14.7
      vertex 108.113 11.8 11.4
      vertex 113.885 11.8 14.7
    endloop
  endfacet
  facet normal 0 -1 -0
    outer loop
      vertex 113.885 11.8 14.7
      vertex 108.113 11.8 11.4
      vertex 115.085 11.8 14.7
    endloop
  endfacet
  facet normal 0 -1 0
    outer loop
      vertex 125.287 11.8 11.4
      vertex 115.085 11.8 14.7
      vertex 108.113 11.8 11.4
    endloop
  endfacet
  facet normal 0 -1 0
    outer loop
      vertex 115.085 11.8 14.7
      vertex 125.287 11.8 11.4
      vertex 126.538 11.8 14.7
    endloop
  endfacet
  facet normal 0 -1 -0
    outer loop
      vertex 126.538 11.8 14.7
      vertex 125.287 11.8 11.4
      vertex 127.738 11.8 14.7
    endloop
  endfacet
  facet normal 0 -1 0
    outer loop
      vertex 135.262 11.8 11.4
      vertex 127.738 11.8 14.7
      vertex 125.287 11.8 11.4
    endloop
  endfacet
  facet normal 0 -1 0
    outer loop
      vertex 127.738 11.8 14.7
      vertex 135.262 11.8 11.4
      vertex 139.192 11.8 14.7
    endloop
  endfacet
  facet normal 0 -1 0
    outer loop
      vertex 25.3077 11.8 14.7
      vertex 29.4625 11.8 11.4
      vertex 26.5077 11.8 14.7
    endloop
  endfacet
  facet normal 0 -1 0
    outer loop
      vertex 1.4 11.8 1.4
      vertex 5 11.8 14.7
      vertex 1.4 11.8 24.2
    endloop
  endfacet
  facet normal 0 -1 -0
    outer loop
      vertex 6.2 11.8 14.7
      vertex 1.4 11.8 1.4
      vertex 12.2875 11.8 11.4
    endloop
  endfacet
  facet normal 0 -1 -0
    outer loop
      vertex 12.2875 11.8 11.4
      vertex 1.4 11.8 1.4
      vertex 12.2875 11.8 1.4
    endloop
  endfacet
  facet normal 0 -1 0
    outer loop
      vertex 6.2 11.8 14.7
      vertex 12.6538 11.8 24.2
      vertex 6.2 11.8 24.2
    endloop
  endfacet
  facet normal 0 -1 -0
    outer loop
      vertex 12.6538 11.8 24.2
      vertex 6.2 11.8 14.7
      vertex 12.6538 11.8 14.7
    endloop
  endfacet
  facet normal 0 -1 0
    outer loop
      vertex 13.8538 11.8 14.7
      vertex 25.3077 11.8 24.2
      vertex 13.8538 11.8 24.2
    endloop
  endfacet
  facet normal 0 -1 -0
    outer loop
      vertex 25.3077 11.8 24.2
      vertex 13.8538 11.8 14.7
      vertex 25.3077 11.8 14.7
    endloop
  endfacet
  facet normal 0 -1 0
    outer loop
      vertex 26.5077 11.8 14.7
      vertex 37.9615 11.8 24.2
      vertex 26.5077 11.8 24.2
    endloop
  endfacet
  facet normal 0 -1 -0
    outer loop
      vertex 37.9615 11.8 24.2
      vertex 26.5077 11.8 14.7
      vertex 37.9615 11.8 14.7
    endloop
  endfacet
  facet normal 0 -1 0
    outer loop
      vertex 39.1615 11.8 14.7
      vertex 50.6154 11.8 24.2
      vertex 39.1615 11.8 24.2
    endloop
  endfacet
  facet normal 0 -1 -0
    outer loop
      vertex 50.6154 11.8 24.2
      vertex 39.1615 11.8 14.7
      vertex 50.6154 11.8 14.7
    endloop
  endfacet
  facet normal 0 -1 0
    outer loop
      vertex 51.8154 11.8 14.7
      vertex 63.2692 11.8 24.2
      vertex 51.8154 11.8 24.2
    endloop
  endfacet
  facet normal 0 -1 -0
    outer loop
      vertex 63.2692 11.8 24.2
      vertex 51.8154 11.8 14.7
      vertex 63.2692 11.8 14.7
    endloop
  endfacet
  facet normal 0 -1 0
    outer loop
      vertex 64.4692 11.8 14.7
      vertex 75.9231 11.8 24.2
      vertex 64.4692 11.8 24.2
    endloop
  endfacet
  facet normal 0 -1 -0
    outer loop
      vertex 75.9231 11.8 24.2
      vertex 64.4692 11.8 14.7
      vertex 75.9231 11.8 14.7
    endloop
  endfacet
  facet normal 0 -1 0
    outer loop
      vertex 77.1231 11.8 14.7
      vertex 88.5769 11.8 24.2
      vertex 77.1231 11.8 24.2
    endloop
  endfacet
  facet normal 0 -1 -0
    outer loop
      vertex 88.5769 11.8 24.2
      vertex 77.1231 11.8 14.7
      vertex 88.5769 11.8 14.7
    endloop
  endfacet
  facet normal 0 -1 0
    outer loop
      vertex 89.7769 11.8 14.7
      vertex 101.231 11.8 24.2
      vertex 89.7769 11.8 24.2
    endloop
  endfacet
  facet normal 0 -1 -0
    outer loop
      vertex 101.231 11.8 24.2
      vertex 89.7769 11.8 14.7
      vertex 101.231 11.8 14.7
    endloop
  endfacet
  facet normal 0 -1 0
    outer loop
      vertex 102.431 11.8 14.7
      vertex 113.885 11.8 24.2
      vertex 102.431 11.8 24.2
    endloop
  endfacet
  facet normal 0 -1 -0
    outer loop
      vertex 113.885 11.8 24.2
      vertex 102.431 11.8 14.7
      vertex 113.885 11.8 14.7
    endloop
  endfacet
  facet normal 0 -1 0
    outer loop
      vertex 115.085 11.8 14.7
      vertex 126.538 11.8 24.2
      vertex 115.085 11.8 24.2
    endloop
  endfacet
  facet normal 0 -1 -0
    outer loop
      vertex 126.538 11.8 24.2
      vertex 115.085 11.8 14.7
      vertex 126.538 11.8 14.7
    endloop
  endfacet
  facet normal 0 -1 0
    outer loop
      vertex 127.738 11.8 14.7
      vertex 139.192 11.8 24.2
      vertex 127.738 11.8 24.2
    endloop
  endfacet
  facet normal 0 -1 -0
    outer loop
      vertex 139.192 11.8 24.2
      vertex 127.738 11.8 14.7
      vertex 139.192 11.8 14.7
    endloop
  endfacet
  facet normal 0 -1 0
    outer loop
      vertex 140.392 11.8 14.7
      vertex 151.846 11.8 24.2
      vertex 140.392 11.8 24.2
    endloop
  endfacet
  facet normal 0 -1 -0
    outer loop
      vertex 151.846 11.8 24.2
      vertex 140.392 11.8 14.7
      vertex 151.846 11.8 14.7
    endloop
  endfacet
  facet normal 0 -1 0
    outer loop
      vertex 153.046 11.8 14.7
      vertex 159.5 11.8 24.2
      vertex 153.046 11.8 24.2
    endloop
  endfacet
  facet normal 0 -1 -0
    outer loop
      vertex 159.5 11.8 24.2
      vertex 153.046 11.8 14.7
      vertex 159.5 11.8 14.7
    endloop
  endfacet
  facet normal 0 -1 0
    outer loop
      vertex 160.7 11.8 14.7
      vertex 163.1 11.8 24.2
      vertex 160.7 11.8 24.2
    endloop
  endfacet
  facet normal 0 -1 0
    outer loop
      vertex 56.6125 11.8 11.4
      vertex 50.6154 11.8 14.7
      vertex 39.4375 11.8 11.4
    endloop
  endfacet
  facet normal 0 -1 0
    outer loop
      vertex 80.9625 11.8 1.4
      vertex 64.4692 11.8 14.7
      vertex 56.6125 11.8 1.4
    endloop
  endfacet
  facet normal 0 -1 0
    outer loop
      vertex 108.113 11.8 11.4
      vertex 102.431 11.8 14.7
      vertex 98.1375 11.8 11.4
    endloop
  endfacet
  facet normal 0 -1 -0
    outer loop
      vertex 139.192 11.8 14.7
      vertex 135.262 11.8 11.4
      vertex 140.392 11.8 14.7
    endloop
  endfacet
  facet normal 0 -1 0
    outer loop
      vertex 152.438 11.8 11.4
      vertex 140.392 11.8 14.7
      vertex 135.262 11.8 11.4
    endloop
  endfacet
  facet normal 0 -1 0
    outer loop
      vertex 140.392 11.8 14.7
      vertex 152.438 11.8 11.4
      vertex 151.846 11.8 14.7
    endloop
  endfacet
  facet normal 0 -1 0
    outer loop
      vertex 151.846 11.8 14.7
      vertex 152.438 11.8 11.4
      vertex 153.046 11.8 14.7
    endloop
  endfacet
  facet normal 0 -1 -0
    outer loop
      vertex 153.046 11.8 14.7
      vertex 152.438 11.8 11.4
      vertex 159.5 11.8 14.7
    endloop
  endfacet
  facet normal 0 -1 0
    outer loop
      vertex 163.1 11.8 1.4
      vertex 159.5 11.8 14.7
      vertex 152.438 11.8 11.4
    endloop
  endfacet
  facet normal 0 -1 0
    outer loop
      vertex 163.1 11.8 1.4
      vertex 152.438 11.8 11.4
      vertex 152.438 11.8 1.4
    endloop
  endfacet
  facet normal 0 -1 0
    outer loop
      vertex 160.7 11.8 14.7
      vertex 163.1 11.8 1.4
      vertex 163.1 11.8 24.2
    endloop
  endfacet
  facet normal 0 -1 0
    outer loop
      vertex 159.5 11.8 14.7
      vertex 163.1 11.8 1.4
      vertex 160.7 11.8 14.7
    endloop
  endfacet
  facet normal -1 0 0
    outer loop
      vertex 12.6538 7.9 14.7
      vertex 12.6538 11.8 24.2
      vertex 12.6538 11.8 14.7
    endloop
  endfacet
  facet normal -1 -0 0
    outer loop
      vertex 12.6538 11.8 24.2
      vertex 12.6538 7.9 14.7
      vertex 12.6538 7.9 24.2
    endloop
  endfacet
  facet normal 1 -0 0
    outer loop
      vertex 13.8538 7.9 24.2
      vertex 13.8538 11.8 14.7
      vertex 13.8538 11.8 24.2
    endloop
  endfacet
  facet normal 1 0 0
    outer loop
      vertex 13.8538 11.8 14.7
      vertex 13.8538 7.9 24.2
      vertex 13.8538 7.9 14.7
    endloop
  endfacet
  facet normal 0 0 -1
    outer loop
      vertex 12.6538 7.9 14.7
      vertex 13.8538 11.8 14.7
      vertex 13.8538 7.9 14.7
    endloop
  endfacet
  facet normal -0 0 -1
    outer loop
      vertex 13.8538 11.8 14.7
      vertex 12.6538 7.9 14.7
      vertex 12.6538 11.8 14.7
    endloop
  endfacet
  facet normal 0 -1 0
    outer loop
      vertex 12.6538 7.9 14.7
      vertex 13.8538 7.9 24.2
      vertex 12.6538 7.9 24.2
    endloop
  endfacet
  facet normal 0 -1 -0
    outer loop
      vertex 13.8538 7.9 24.2
      vertex 12.6538 7.9 14.7
      vertex 13.8538 7.9 14.7
    endloop
  endfacet
  facet normal -1 0 0
    outer loop
      vertex 25.3077 7.9 14.7
      vertex 25.3077 11.8 24.2
      vertex 25.3077 11.8 14.7
    endloop
  endfacet
  facet normal -1 -0 0
    outer loop
      vertex 25.3077 11.8 24.2
      vertex 25.3077 7.9 14.7
      vertex 25.3077 7.9 24.2
    endloop
  endfacet
  facet normal 1 -0 0
    outer loop
      vertex 26.5077 7.9 24.2
      vertex 26.5077 11.8 14.7
      vertex 26.5077 11.8 24.2
    endloop
  endfacet
  facet normal 1 0 0
    outer loop
      vertex 26.5077 11.8 14.7
      vertex 26.5077 7.9 24.2
      vertex 26.5077 7.9 14.7
    endloop
  endfacet
  facet normal 0 0 -1
    outer loop
      vertex 25.3077 7.9 14.7
      vertex 26.5077 11.8 14.7
      vertex 26.5077 7.9 14.7
    endloop
  endfacet
  facet normal -0 0 -1
    outer loop
      vertex 26.5077 11.8 14.7
      vertex 25.3077 7.9 14.7
      vertex 25.3077 11.8 14.7
    endloop
  endfacet
  facet normal 0 -1 0
    outer loop
      vertex 25.3077 7.9 14.7
      vertex 26.5077 7.9 24.2
      vertex 25.3077 7.9 24.2
    endloop
  endfacet
  facet normal 0 -1 -0
    outer loop
      vertex 26.5077 7.9 24.2
      vertex 25.3077 7.9 14.7
      vertex 26.5077 7.9 14.7
    endloop
  endfacet
  facet normal -1 0 0
    outer loop
      vertex 37.9615 7.9 14.7
      vertex 37.9615 11.8 24.2
      vertex 37.9615 11.8 14.7
    endloop
  endfacet
  facet normal -1 -0 0
    outer loop
      vertex 37.9615 11.8 24.2
      vertex 37.9615 7.9 14.7
      vertex 37.9615 7.9 24.2
    endloop
  endfacet
  facet normal 1 -0 0
    outer loop
      vertex 39.1615 7.9 24.2
      vertex 39.1615 11.8 14.7
      vertex 39.1615 11.8 24.2
    endloop
  endfacet
  facet normal 1 0 0
    outer loop
      vertex 39.1615 11.8 14.7
      vertex 39.1615 7.9 24.2
      vertex 39.1615 7.9 14.7
    endloop
  endfacet
  facet normal 0 0 -1
    outer loop
      vertex 37.9615 7.9 14.7
      vertex 39.1615 11.8 14.7
      vertex 39.1615 7.9 14.7
    endloop
  endfacet
  facet normal -0 0 -1
    outer loop
      vertex 39.1615 11.8 14.7
      vertex 37.9615 7.9 14.7
      vertex 37.9615 11.8 14.7
    endloop
  endfacet
  facet normal 0 -1 0
    outer loop
      vertex 37.9615 7.9 14.7
      vertex 39.1615 7.9 24.2
      vertex 37.9615 7.9 24.2
    endloop
  endfacet
  facet normal 0 -1 -0
    outer loop
      vertex 39.1615 7.9 24.2
      vertex 37.9615 7.9 14.7
      vertex 39.1615 7.9 14.7
    endloop
  endfacet
  facet normal -1 0 0
    outer loop
      vertex 50.6154 7.9 14.7
      vertex 50.6154 11.8 24.2
      vertex 50.6154 11.8 14.7
    endloop
  endfacet
  facet normal -1 -0 0
    outer loop
      vertex 50.6154 11.8 24.2
      vertex 50.6154 7.9 14.7
      vertex 50.6154 7.9 24.2
    endloop
  endfacet
  facet normal 1 -0 0
    outer loop
      vertex 51.8154 7.9 24.2
      vertex 51.8154 11.8 14.7
      vertex 51.8154 11.8 24.2
    endloop
  endfacet
  facet normal 1 0 0
    outer loop
      vertex 51.8154 11.8 14.7
      vertex 51.8154 7.9 24.2
      vertex 51.8154 7.9 14.7
    endloop
  endfacet
  facet normal 0 0 -1
    outer loop
      vertex 50.6154 7.9 14.7
      vertex 51.8154 11.8 14.7
      vertex 51.8154 7.9 14.7
    endloop
  endfacet
  facet normal -0 0 -1
    outer loop
      vertex 51.8154 11.8 14.7
      vertex 50.6154 7.9 14.7
      vertex 50.6154 11.8 14.7
    endloop
  endfacet
  facet normal 0 -1 0
    outer loop
      vertex 50.6154 7.9 14.7
      vertex 51.8154 7.9 24.2
      vertex 50.6154 7.9 24.2
    endloop
  endfacet
  facet normal 0 -1 -0
    outer loop
      vertex 51.8154 7.9 24.2
      vertex 50.6154 7.9 14.7
      vertex 51.8154 7.9 14.7
    endloop
  endfacet
  facet normal -1 0 0
    outer loop
      vertex 63.2692 7.9 14.7
      vertex 63.2692 11.8 24.2
      vertex 63.2692 11.8 14.7
    endloop
  endfacet
  facet normal -1 -0 0
    outer loop
      vertex 63.2692 11.8 24.2
      vertex 63.2692 7.9 14.7
      vertex 63.2692 7.9 24.2
    endloop
  endfacet
  facet normal 1 -0 0
    outer loop
      vertex 64.4692 7.9 24.2
      vertex 64.4692 11.8 14.7
      vertex 64.4692 11.8 24.2
    endloop
  endfacet
  facet normal 1 0 0
    outer loop
      vertex 64.4692 11.8 14.7
      vertex 64.4692 7.9 24.2
      vertex 64.4692 7.9 14.7
    endloop
  endfacet
  facet normal 0 0 -1
    outer loop
      vertex 63.2692 7.9 14.7
      vertex 64.4692 11.8 14.7
      vertex 64.4692 7.9 14.7
    endloop
  endfacet
  facet normal -0 0 -1
    outer loop
      vertex 64.4692 11.8 14.7
      vertex 63.2692 7.9 14.7
      vertex 63.2692 11.8 14.7
    endloop
  endfacet
  facet normal 0 -1 0
    outer loop
      vertex 63.2692 7.9 14.7
      vertex 64.4692 7.9 24.2
      vertex 63.2692 7.9 24.2
    endloop
  endfacet
  facet normal 0 -1 -0
    outer loop
      vertex 64.4692 7.9 24.2
      vertex 63.2692 7.9 14.7
      vertex 64.4692 7.9 14.7
    endloop
  endfacet
  facet normal -1 0 0
    outer loop
      vertex 75.9231 7.9 14.7
      vertex 75.9231 11.8 24.2
      vertex 75.9231 11.8 14.7
    endloop
  endfacet
  facet normal -1 -0 0
    outer loop
      vertex 75.9231 11.8 24.2
      vertex 75.9231 7.9 14.7
      vertex 75.9231 7.9 24.2
    endloop
  endfacet
  facet normal 1 -0 0
    outer loop
      vertex 77.1231 7.9 24.2
      vertex 77.1231 11.8 14.7
      vertex 77.1231 11.8 24.2
    endloop
  endfacet
  facet normal 1 0 0
    outer loop
      vertex 77.1231 11.8 14.7
      vertex 77.1231 7.9 24.2
      vertex 77.1231 7.9 14.7
    endloop
  endfacet
  facet normal 0 0 -1
    outer loop
      vertex 75.9231 7.9 14.7
      vertex 77.1231 11.8 14.7
      vertex 77.1231 7.9 14.7
    endloop
  endfacet
  facet normal -0 0 -1
    outer loop
      vertex 77.1231 11.8 14.7
      vertex 75.9231 7.9 14.7
      vertex 75.9231 11.8 14.7
    endloop
  endfacet
  facet normal 0 -1 0
    outer loop
      vertex 75.9231 7.9 14.7
      vertex 77.1231 7.9 24.2
      vertex 75.9231 7.9 24.2
    endloop
  endfacet
  facet normal 0 -1 -0
    outer loop
      vertex 77.1231 7.9 24.2
      vertex 75.9231 7.9 14.7
      vertex 77.1231 7.9 14.7
    endloop
  endfacet
  facet normal -1 0 0
    outer loop
      vertex 88.5769 7.9 14.7
      vertex 88.5769 11.8 24.2
      vertex 88.5769 11.8 14.7
    endloop
  endfacet
  facet normal -1 -0 0
    outer loop
      vertex 88.5769 11.8 24.2
      vertex 88.5769 7.9 14.7
      vertex 88.5769 7.9 24.2
    endloop
  endfacet
  facet normal 1 -0 0
    outer loop
      vertex 89.7769 7.9 24.2
      vertex 89.7769 11.8 14.7
      vertex 89.7769 11.8 24.2
    endloop
  endfacet
  facet normal 1 0 0
    outer loop
      vertex 89.7769 11.8 14.7
      vertex 89.7769 7.9 24.2
      vertex 89.7769 7.9 14.7
    endloop
  endfacet
  facet normal 0 0 -1
    outer loop
      vertex 88.5769 7.9 14.7
      vertex 89.7769 11.8 14.7
      vertex 89.7769 7.9 14.7
    endloop
  endfacet
  facet normal -0 0 -1
    outer loop
      vertex 89.7769 11.8 14.7
      vertex 88.5769 7.9 14.7
      vertex 88.5769 11.8 14.7
    endloop
  endfacet
  facet normal 0 -1 0
    outer loop
      vertex 88.5769 7.9 14.7
      vertex 89.7769 7.9 24.2
      vertex 88.5769 7.9 24.2
    endloop
  endfacet
  facet normal 0 -1 -0
    outer loop
      vertex 89.7769 7.9 24.2
      vertex 88.5769 7.9 14.7
      vertex 89.7769 7.9 14.7
    endloop
  endfacet
  facet normal -1 0 0
    outer loop
      vertex 101.231 7.9 14.7
      vertex 101.231 11.8 24.2
      vertex 101.231 11.8 14.7
    endloop
  endfacet
  facet normal -1 -0 0
    outer loop
      vertex 101.231 11.8 24.2
      vertex 101.231 7.9 14.7
      vertex 101.231 7.9 24.2
    endloop
  endfacet
  facet normal 1 -0 0
    outer loop
      vertex 102.431 7.9 24.2
      vertex 102.431 11.8 14.7
      vertex 102.431 11.8 24.2
    endloop
  endfacet
  facet normal 1 0 0
    outer loop
      vertex 102.431 11.8 14.7
      vertex 102.431 7.9 24.2
      vertex 102.431 7.9 14.7
    endloop
  endfacet
  facet normal 0 0 -1
    outer loop
      vertex 101.231 7.9 14.7
      vertex 102.431 11.8 14.7
      vertex 102.431 7.9 14.7
    endloop
  endfacet
  facet normal -0 0 -1
    outer loop
      vertex 102.431 11.8 14.7
      vertex 101.231 7.9 14.7
      vertex 101.231 11.8 14.7
    endloop
  endfacet
  facet normal 0 -1 0
    outer loop
      vertex 101.231 7.9 14.7
      vertex 102.431 7.9 24.2
      vertex 101.231 7.9 24.2
    endloop
  endfacet
  facet normal 0 -1 -0
    outer loop
      vertex 102.431 7.9 24.2
      vertex 101.231 7.9 14.7
      vertex 102.431 7.9 14.7
    endloop
  endfacet
  facet normal -1 0 0
    outer loop
      vertex 113.885 7.9 14.7
      vertex 113.885 11.8 24.2
      vertex 113.885 11.8 14.7
    endloop
  endfacet
  facet normal -1 -0 0
    outer loop
      vertex 113.885 11.8 24.2
      vertex 113.885 7.9 14.7
      vertex 113.885 7.9 24.2
    endloop
  endfacet
  facet normal 1 -0 0
    outer loop
      vertex 115.085 7.9 24.2
      vertex 115.085 11.8 14.7
      vertex 115.085 11.8 24.2
    endloop
  endfacet
  facet normal 1 0 0
    outer loop
      vertex 115.085 11.8 14.7
      vertex 115.085 7.9 24.2
      vertex 115.085 7.9 14.7
    endloop
  endfacet
  facet normal 0 0 -1
    outer loop
      vertex 113.885 7.9 14.7
      vertex 115.085 11.8 14.7
      vertex 115.085 7.9 14.7
    endloop
  endfacet
  facet normal -0 0 -1
    outer loop
      vertex 115.085 11.8 14.7
      vertex 113.885 7.9 14.7
      vertex 113.885 11.8 14.7
    endloop
  endfacet
  facet normal 0 -1 0
    outer loop
      vertex 113.885 7.9 14.7
      vertex 115.085 7.9 24.2
      vertex 113.885 7.9 24.2
    endloop
  endfacet
  facet normal 0 -1 -0
    outer loop
      vertex 115.085 7.9 24.2
      vertex 113.885 7.9 14.7
      vertex 115.085 7.9 14.7
    endloop
  endfacet
  facet normal -1 0 0
    outer loop
      vertex 126.538 7.9 14.7
      vertex 126.538 11.8 24.2
      vertex 126.538 11.8 14.7
    endloop
  endfacet
  facet normal -1 -0 0
    outer loop
      vertex 126.538 11.8 24.2
      vertex 126.538 7.9 14.7
      vertex 126.538 7.9 24.2
    endloop
  endfacet
  facet normal 1 -0 0
    outer loop
      vertex 127.738 7.9 24.2
      vertex 127.738 11.8 14.7
      vertex 127.738 11.8 24.2
    endloop
  endfacet
  facet normal 1 0 0
    outer loop
      vertex 127.738 11.8 14.7
      vertex 127.738 7.9 24.2
      vertex 127.738 7.9 14.7
    endloop
  endfacet
  facet normal 0 0 -1
    outer loop
      vertex 126.538 7.9 14.7
      vertex 127.738 11.8 14.7
      vertex 127.738 7.9 14.7
    endloop
  endfacet
  facet normal -0 0 -1
    outer loop
      vertex 127.738 11.8 14.7
      vertex 126.538 7.9 14.7
      vertex 126.538 11.8 14.7
    endloop
  endfacet
  facet normal 0 -1 0
    outer loop
      vertex 126.538 7.9 14.7
      vertex 127.738 7.9 24.2
      vertex 126.538 7.9 24.2
    endloop
  endfacet
  facet normal 0 -1 -0
    outer loop
      vertex 127.738 7.9 24.2
      vertex 126.538 7.9 14.7
      vertex 127.738 7.9 14.7
    endloop
  endfacet
  facet normal -1 0 0
    outer loop
      vertex 139.192 7.9 14.7
      vertex 139.192 11.8 24.2
      vertex 139.192 11.8 14.7
    endloop
  endfacet
  facet normal -1 -0 0
    outer loop
      vertex 139.192 11.8 24.2
      vertex 139.192 7.9 14.7
      vertex 139.192 7.9 24.2
    endloop
  endfacet
  facet normal 1 -0 0
    outer loop
      vertex 140.392 7.9 24.2
      vertex 140.392 11.8 14.7
      vertex 140.392 11.8 24.2
    endloop
  endfacet
  facet normal 1 0 0
    outer loop
      vertex 140.392 11.8 14.7
      vertex 140.392 7.9 24.2
      vertex 140.392 7.9 14.7
    endloop
  endfacet
  facet normal 0 0 -1
    outer loop
      vertex 139.192 7.9 14.7
      vertex 140.392 11.8 14.7
      vertex 140.392 7.9 14.7
    endloop
  endfacet
  facet normal -0 0 -1
    outer loop
      vertex 140.392 11.8 14.7
      vertex 139.192 7.9 14.7
      vertex 139.192 11.8 14.7
    endloop
  endfacet
  facet normal 0 -1 0
    outer loop
      vertex 139.192 7.9 14.7
      vertex 140.392 7.9 24.2
      vertex 139.192 7.9 24.2
    endloop
  endfacet
  facet normal 0 -1 -0
    outer loop
      vertex 140.392 7.9 24.2
      vertex 139.192 7.9 14.7
      vertex 140.392 7.9 14.7
    endloop
  endfacet
  facet normal -1 0 0
    outer loop
      vertex 151.846 7.9 14.7
      vertex 151.846 11.8 24.2
      vertex 151.846 11.8 14.7
    endloop
  endfacet
  facet normal -1 -0 0
    outer loop
      vertex 151.846 11.8 24.2
      vertex 151.846 7.9 14.7
      vertex 151.846 7.9 24.2
    endloop
  endfacet
  facet normal 1 -0 0
    outer loop
      vertex 153.046 7.9 24.2
      vertex 153.046 11.8 14.7
      vertex 153.046 11.8 24.2
    endloop
  endfacet
  facet normal 1 0 0
    outer loop
      vertex 153.046 11.8 14.7
      vertex 153.046 7.9 24.2
      vertex 153.046 7.9 14.7
    endloop
  endfacet
  facet normal 0 0 -1
    outer loop
      vertex 151.846 7.9 14.7
      vertex 153.046 11.8 14.7
      vertex 153.046 7.9 14.7
    endloop
  endfacet
  facet normal -0 0 -1
    outer loop
      vertex 153.046 11.8 14.7
      vertex 151.846 7.9 14.7
      vertex 151.846 11.8 14.7
    endloop
  endfacet
  facet normal 0 -1 0
    outer loop
      vertex 151.846 7.9 14.7
      vertex 153.046 7.9 24.2
      vertex 151.846 7.9 24.2
    endloop
  endfacet
  facet normal 0 -1 -0
    outer loop
      vertex 153.046 7.9 24.2
      vertex 151.846 7.9 14.7
      vertex 153.046 7.9 14.7
    endloop
  endfacet
  facet normal -1 0 0
    outer loop
      vertex 5 7.9 14.7
      vertex 5 11.8 24.2
      vertex 5 11.8 14.7
    endloop
  endfacet
  facet normal -1 -0 0
    outer loop
      vertex 5 11.8 24.2
      vertex 5 7.9 14.7
      vertex 5 7.9 24.2
    endloop
  endfacet
  facet normal 1 -0 0
    outer loop
      vertex 6.2 7.9 24.2
      vertex 6.2 11.8 14.7
      vertex 6.2 11.8 24.2
    endloop
  endfacet
  facet normal 1 0 0
    outer loop
      vertex 6.2 11.8 14.7
      vertex 6.2 7.9 24.2
      vertex 6.2 7.9 14.7
    endloop
  endfacet
  facet normal 0 0 -1
    outer loop
      vertex 5 7.9 14.7
      vertex 6.2 11.8 14.7
      vertex 6.2 7.9 14.7
    endloop
  endfacet
  facet normal -0 0 -1
    outer loop
      vertex 6.2 11.8 14.7
      vertex 5 7.9 14.7
      vertex 5 11.8 14.7
    endloop
  endfacet
  facet normal 0 -1 0
    outer loop
      vertex 5 7.9 14.7
      vertex 6.2 7.9 24.2
      vertex 5 7.9 24.2
    endloop
  endfacet
  facet normal 0 -1 -0
    outer loop
      vertex 6.2 7.9 24.2
      vertex 5 7.9 14.7
      vertex 6.2 7.9 14.7
    endloop
  endfacet
  facet normal -1 0 0
    outer loop
      vertex 159.5 7.9 14.7
      vertex 159.5 11.8 24.2
      vertex 159.5 11.8 14.7
    endloop
  endfacet
  facet normal -1 -0 0
    outer loop
      vertex 159.5 11.8 24.2
      vertex 159.5 7.9 14.7
      vertex 159.5 7.9 24.2
    endloop
  endfacet
  facet normal 1 -0 0
    outer loop
      vertex 160.7 7.9 24.2
      vertex 160.7 11.8 14.7
      vertex 160.7 11.8 24.2
    endloop
  endfacet
  facet normal 1 0 0
    outer loop
      vertex 160.7 11.8 14.7
      vertex 160.7 7.9 24.2
      vertex 160.7 7.9 14.7
    endloop
  endfacet
  facet normal 0 0 -1
    outer loop
      vertex 159.5 7.9 14.7
      vertex 160.7 11.8 14.7
      vertex 160.7 7.9 14.7
    endloop
  endfacet
  facet normal -0 0 -1
    outer loop
      vertex 160.7 11.8 14.7
      vertex 159.5 7.9 14.7
      vertex 159.5 11.8 14.7
    endloop
  endfacet
  facet normal 0 -1 0
    outer loop
      vertex 159.5 7.9 14.7
      vertex 160.7 7.9 24.2
      vertex 159.5 7.9 24.2
    endloop
  endfacet
  facet normal 0 -1 -0
    outer loop
      vertex 160.7 7.9 24.2
      vertex 159.5 7.9 14.7
      vertex 160.7 7.9 14.7
    endloop
  endfacet
endsolid OpenSCAD_Model
